<svg xmlns="http://www.w3.org/2000/svg" width="25" height="19" viewBox="0 0 25 19">
    <g fill="none" fill-rule="evenodd">
        <g fill="#fff" fill-rule="nonzero">
            <g>
                <g>
                    <g>
                        <g>
                            <path d="M5.767 1.903l.646 1.138.753-.442L6.52 1.46C8.128.588 9.95.068 11.885 0v1.368h.862V0c1.893.066 3.678.566 5.26 1.404l-.664 1.17.747.437.668-1.175c1.571.98 2.91 2.309 3.91 3.88l-1.212.71.431.76 1.225-.719c.887 1.633 1.425 3.49 1.511 5.465h-1.465v.876h1.473c-.048 1.984-.551 3.854-1.408 5.505l-1.294-.76-.275.484-.903-.514c.85-1.469 1.338-3.18 1.338-5.007 0-5.467-4.366-9.898-9.753-9.898-5.386 0-9.753 4.431-9.753 9.898 0 1.814.481 3.514 1.32 4.976l-.977.557-.305-.537-1.248.732C.538 16.61.047 14.764 0 12.808h1.391v-.876H.008c.085-1.94.606-3.766 1.465-5.378l1.148.673.431-.759-1.142-.67c.984-1.57 2.304-2.904 3.857-3.895z" transform="translate(-35 -621) translate(0 612) translate(20 9) translate(15)"/>
                            <path d="M13.577 12.924c-.041.102-.095.2-.162.294-.468.656-1.39.816-2.058.356-.669-.46-.831-1.364-.363-2.02.06-.085.128-.162.202-.23l5.49-5.22-3.109 6.82z" transform="translate(-35 -621) translate(0 612) translate(20 9) translate(15)"/>
                        </g>
                    </g>
                </g>
            </g>
        </g>
    </g>
</svg>
