<svg xmlns="http://www.w3.org/2000/svg" xmlns:xlink="http://www.w3.org/1999/xlink" width="20" height="20" viewBox="0 0 20 20">
    <defs>
        <path id="ccsit77sja" d="M9 18c-4.97 0-9-4.03-9-9s4.03-9 9-9 9 4.03 9 9-4.03 9-9 9z"/>
    </defs>
    <g fill="none" fill-rule="evenodd">
        <g>
            <g>
                <g>
                    <g>
                        <g transform="translate(-131 -620) translate(0 612) translate(94) translate(15 9) translate(23)">
                            <use fill-rule="nonzero" stroke="#fff" stroke-width="1.636" xlink:href="#ccsit77sja"/>
                            <path fill="#fff" d="M9.818 5.09c0-.451-.366-.817-.818-.817-.452 0-.818.366-.818.818V10c0 .217.086.425.24.579l2.454 2.454c.32.32.838.32 1.157 0 .32-.32.32-.837 0-1.157L9.818 9.661v-4.57z"/>
                        </g>
                    </g>
                </g>
            </g>
        </g>
    </g>
</svg>
