<svg xmlns="http://www.w3.org/2000/svg" xmlns:xlink="http://www.w3.org/1999/xlink" width="15" height="15" viewBox="0 0 15 15">
    <defs>
        <path id="995fa71opa" d="M221.818 32.136c-.376 0-.682.306-.682.682v6.137c0 .376.306.681.682.681h6.137c.376 0 .681-.305.681-.681v-6.137c0-.376-.305-.682-.681-.682h-6.137zm6.137-1.363c1.13 0 2.045.916 2.045 2.045v6.137c0 1.13-.916 2.045-2.045 2.045h-6.137c-1.13 0-2.045-.916-2.045-2.045v-6.137c0-1.13.916-2.045 2.045-2.045h6.137zM223.182 26c1.13 0 2.045.916 2.045 2.045v.682c0 .377-.305.682-.682.682-.376 0-.681-.305-.681-.682v-.682c0-.376-.306-.681-.682-.681h-6.137c-.376 0-.681.305-.681.681v6.137c0 .376.305.682.681.682h.682c.377 0 .682.305.682.681 0 .377-.305.682-.682.682h-.682c-1.13 0-2.045-.916-2.045-2.045v-6.137c0-1.13.916-2.045 2.045-2.045z"/>
    </defs>
    <g fill="none" fill-rule="evenodd">
        <g>
            <g>
                <g>
                    <g>
                        <g transform="translate(-1277 -1001) translate(100 773) translate(947 79) translate(0 97) translate(15 26)">
                            <use fill="#1AFFFC" fill-rule="nonzero" xlink:href="#995fa71opa"/>
                        </g>
                    </g>
                </g>
            </g>
        </g>
    </g>
</svg>
