<svg xmlns="http://www.w3.org/2000/svg" width="17" height="18" viewBox="0 0 17 18">
    <g fill="none" fill-rule="evenodd">
        <g fill="#686A83">
            <g>
                <g>
                    <path d="M9.08 151.543H.938c-.518 0-.938-.42-.938-.939v-15.123c0-.518.42-.938.938-.938h15.124c.518 0 .938.42.938.938v15.123c0 .518-.42.939-.938.939H11.73v-6.584h2.21l.33-2.565h-2.54v-1.638c0-.743.206-1.25 1.271-1.25h1.359v-2.295c-.235-.031-1.042-.1-1.98-.1-1.959 0-3.3 1.195-3.3 3.39v1.893H6.865v2.565H9.08v6.584z" transform="translate(-1034 -1102) translate(0 943) translate(1034 25)"/>
                </g>
            </g>
        </g>
    </g>
</svg>
