<svg xmlns="http://www.w3.org/2000/svg" width="23" height="22" viewBox="0 0 23 22">
    <g fill="none" fill-rule="evenodd">
        <g fill="#1AFFFC" fill-rule="nonzero">
            <g>
                <path d="M39.5 11.647l-2.078 6.968h-7.577c-.363.001-.685.233-.8.576-.116.344 0 .723.288.943l6.142 4.781-2.083 6.9c-.085.277-.035.577.136.811.171.234.443.372.732.374.195 0 .384-.066.538-.186l5.549-4.206 5.545 4.206c.154.12.343.185.538.186.29-.003.56-.143.732-.377.17-.234.22-.535.135-.812l-2.082-6.896 6.142-4.78c.285-.222.398-.599.283-.94-.116-.342-.435-.572-.796-.575h-7.56l-2.074-6.968c-.107-.38-.451-.644-.846-.648-.412 0-.756.264-.864.643z" transform="translate(-29 -499) translate(0 488)"/>
            </g>
        </g>
    </g>
</svg>
