<?xml version="1.0" encoding="UTF-8"?>
<svg width="723px" height="758px" viewBox="0 0 723 758" version="1.1" xmlns="http://www.w3.org/2000/svg" xmlns:xlink="http://www.w3.org/1999/xlink">
    <title>Gauge@2x</title>
    <defs>
        <linearGradient x1="0%" y1="50%" x2="33.1870833%" y2="50%" id="linearGradient-1">
            <stop stop-color="#279CF8" offset="0%"></stop>
            <stop stop-color="#279CF8" stop-opacity="0" offset="100%"></stop>
        </linearGradient>
        <linearGradient x1="29.3463542%" y1="14.5748698%" x2="50%" y2="50%" id="linearGradient-2">
            <stop stop-color="#12FC87" offset="0%"></stop>
            <stop stop-color="#279CF8" stop-opacity="0" offset="100%"></stop>
        </linearGradient>
        <linearGradient x1="84.483724%" y1="27.1738281%" x2="66.890625%" y2="60.9550781%" id="linearGradient-3">
            <stop stop-color="#F3FF00" offset="0%"></stop>
            <stop stop-color="#000000" stop-opacity="0" offset="100%"></stop>
        </linearGradient>
        <linearGradient x1="66.1912769%" y1="50%" x2="100%" y2="50%" id="linearGradient-4">
            <stop stop-color="#FF0000" stop-opacity="0" offset="0%"></stop>
            <stop stop-color="#D80D0D" stop-opacity="0.947944973" offset="100%"></stop>
        </linearGradient>
        <path d="M362,79 C527.685425,79 662,213.314575 662,379 C662,544.685425 527.685425,679 362,679 C196.314575,679 62,544.685425 62,379 C62,213.314575 196.314575,79 362,79 Z M362,129 C223.928813,129 112,240.928813 112,379 C112,517.071187 223.928813,629 362,629 C500.071187,629 612,517.071187 612,379 C612,240.928813 500.071187,129 362,129 Z" id="path-5"></path>
        <path d="M362,679 C527.685425,679 662,544.685425 662,379 C662,213.314575 527.685425,79 362,79 C196.314575,79 62,213.314575 62,379 C62,433.509471 76.5377927,484.623459 101.947628,528.676214 C153.772798,618.524947 250.824046,679 362,679 Z" id="path-6"></path>
        <mask id="mask-7" maskContentUnits="userSpaceOnUse" maskUnits="objectBoundingBox" x="0" y="0" width="600" height="600" fill="white">
            <use xlink:href="#path-6"></use>
        </mask>
        <radialGradient cx="50%" cy="-30.6523438%" fx="50%" fy="-30.6523438%" r="100%" id="radialGradient-8">
            <stop stop-color="#787878" offset="0%"></stop>
            <stop stop-color="#D9D9D9" offset="49.5077673%"></stop>
            <stop stop-color="#E5E5E5" offset="61.7803223%"></stop>
            <stop stop-color="#787878" offset="74.9870056%"></stop>
            <stop stop-color="#E5E5E5" offset="86.2224968%"></stop>
            <stop stop-color="#787878" stop-opacity="0" offset="100%"></stop>
        </radialGradient>
        <radialGradient cx="50%" cy="0%" fx="50%" fy="0%" r="100%" id="radialGradient-9">
            <stop stop-color="#787878" offset="0%"></stop>
            <stop stop-color="#E5E5E5" offset="13.1372437%"></stop>
            <stop stop-color="#E5E5E5" offset="37.920863%"></stop>
            <stop stop-color="#787878" offset="49.8754936%"></stop>
            <stop stop-color="#E5E5E5" offset="61.7803223%"></stop>
            <stop stop-color="#787878" offset="74.9870056%"></stop>
            <stop stop-color="#E5E5E5" offset="86.2224968%"></stop>
            <stop stop-color="#787878" offset="100%"></stop>
        </radialGradient>
        <linearGradient x1="43.4025586%" y1="59.1933342%" x2="50%" y2="59.1933342%" id="linearGradient-10">
            <stop stop-color="#DEDEDE" offset="0%"></stop>
            <stop stop-color="#B3B3B3" offset="100%"></stop>
        </linearGradient>
        <linearGradient x1="50%" y1="0%" x2="50.0004526%" y2="100%" id="linearGradient-11">
            <stop stop-color="#000000" stop-opacity="0.2" offset="0%"></stop>
            <stop stop-color="#FFFFFF" offset="50.3153603%"></stop>
            <stop stop-color="#000000" stop-opacity="0.2" offset="100%"></stop>
        </linearGradient>
        <linearGradient x1="100%" y1="50%" x2="0%" y2="50.0002983%" id="linearGradient-12">
            <stop stop-color="#000000" stop-opacity="0.2" offset="0%"></stop>
            <stop stop-color="#FFFFFF" offset="48.9875973%"></stop>
            <stop stop-color="#000000" stop-opacity="0.2" offset="100%"></stop>
        </linearGradient>
        <linearGradient x1="85.6567968%" y1="86.292334%" x2="15.1581222%" y2="14.4379082%" id="linearGradient-13">
            <stop stop-color="#B6B6B6" stop-opacity="0" offset="0%"></stop>
            <stop stop-color="#DCDCDC" offset="50.3153603%"></stop>
            <stop stop-color="#000000" stop-opacity="0.2" offset="100%"></stop>
        </linearGradient>
        <linearGradient x1="87.5744142%" y1="16.6675552%" x2="16.0320179%" y2="84.3747166%" id="linearGradient-14">
            <stop stop-color="#000000" stop-opacity="0.2" offset="0%"></stop>
            <stop stop-color="#DCDCDC" offset="50.3153603%"></stop>
            <stop stop-color="#000000" stop-opacity="0.2" offset="100%"></stop>
        </linearGradient>
        <circle id="path-15" cx="131" cy="131" r="37"></circle>
        <filter x="-18.2%" y="-18.2%" width="144.6%" height="144.6%" filterUnits="objectBoundingBox" id="filter-16">
            <feOffset dx="3" dy="3" in="SourceAlpha" result="shadowOffsetOuter1"></feOffset>
            <feGaussianBlur stdDeviation="5" in="shadowOffsetOuter1" result="shadowBlurOuter1"></feGaussianBlur>
            <feColorMatrix values="0 0 0 0 0   0 0 0 0 0   0 0 0 0 0  0 0 0 1 0" type="matrix" in="shadowBlurOuter1"></feColorMatrix>
        </filter>
    </defs>
    <g id="Gauge" stroke="none" stroke-width="1" fill="none" fill-rule="evenodd">
        <g xmlns="http://www.w3.org/2000/svg" id="Skala" transform="translate(62.000000, 80.000000)" fill="#202431">
                    <path d="M536.094808,427.071797 L563.807621,443.071797 L555.807621,456.928203 L528.094808,440.928203 L536.094808,427.071797 Z M63.9051918,427.071797 L71.9051918,440.928203 L44.1923789,456.928203 L36.1923789,443.071797 L63.9051918,427.071797 Z M600,292 L600,308 L568,308 L568,292 L600,292 Z M32,292 L32,308 L3.55271368e-15,308 L6.13561361e-16,292 L32,292 Z M555.807621,143.071797 L563.807621,156.928203 L536.094808,172.928203 L528.094808,159.071797 L555.807621,143.071797 Z M44.1923789,143.071797 L71.9051918,159.071797 L63.9051918,172.928203 L36.1923789,156.928203 L44.1923789,143.071797 Z M443.071797,36.1923789 L456.928203,44.1923789 L440.928203,71.9051918 L427.071797,63.9051918 L443.071797,36.1923789 Z M156.928203,36.1923789 L172.928203,63.9051918 L159.071797,71.9051918 L143.071797,44.1923789 L156.928203,36.1923789 Z M308,0 L308,32 L292,32 L292,0 L308,0 Z" id="Rectangle"/>
                    <path d="M543.737113,437.834936 L561.057621,447.834936 L558.557621,452.165064 L541.237113,442.165064 L543.737113,437.834936 Z M56.2628869,437.834936 L58.7628869,442.165064 L41.4423789,452.165064 L38.9423789,447.834936 L56.2628869,437.834936 Z M554.822726,416.067344 L572.948882,424.519709 L570.83579,429.051248 L552.709635,420.598883 L554.822726,416.067344 Z M45.177274,416.067344 L47.2903653,420.598883 L29.1642095,429.051248 L27.0511182,424.519709 L45.177274,416.067344 Z M563.968984,393.416409 L582.762837,400.256811 L581.052736,404.955275 L562.258883,398.114872 L563.968984,393.416409 Z M36.0310158,393.416409 L37.7411165,398.114872 L18.9472641,404.955275 L17.2371634,400.256811 L36.0310158,393.416409 Z M571.106279,370.054518 L590.424795,375.230899 L589.1307,380.060528 L569.812184,374.884147 L571.106279,370.054518 Z M28.893721,370.054518 L30.1878163,374.884147 L10.8692997,380.060528 L9.5752045,375.230899 L28.893721,370.054518 Z M576.180291,346.15947 L595.876446,349.632434 L595.008205,354.556473 L575.31205,351.083509 L576.180291,346.15947 Z M23.8197087,346.15947 L24.6879496,351.083509 L4.99179454,354.556473 L4.12355365,349.632434 L23.8197087,346.15947 Z M579.152405,321.913121 L599.076299,323.656236 L598.64052,328.63721 L578.716626,326.894095 L579.152405,321.913121 Z M20.8475952,321.913121 L21.2833739,326.894095 L1.35947993,328.63721 L0.923701216,323.656236 L20.8475952,321.913121 Z M600,297.5 L600,302.5 L580,302.5 L580,297.5 L600,297.5 Z M20,297.5 L20,302.5 L1.77635684e-15,302.5 L8.5787174e-16,297.5 L20,297.5 Z M598.64052,271.36279 L599.076299,276.343764 L579.152405,278.086879 L578.716626,273.105905 L598.64052,271.36279 Z M1.35947993,271.36279 L21.2833739,273.105905 L20.8475952,278.086879 L0.923701216,276.343764 L1.35947993,271.36279 Z M595.008205,245.443527 L595.876446,250.367566 L576.180291,253.84053 L575.31205,248.916491 L595.008205,245.443527 Z M4.99179454,245.443527 L24.6879496,248.916491 L23.8197087,253.84053 L4.12355365,250.367566 L4.99179454,245.443527 Z M589.1307,219.939472 L590.424795,224.769101 L571.106279,229.945482 L569.812184,225.115853 L589.1307,219.939472 Z M10.8692997,219.939472 L30.1878163,225.115853 L28.893721,229.945482 L9.5752045,224.769101 L10.8692997,219.939472 Z M581.052736,195.044725 L582.762837,199.743189 L563.968984,206.583591 L562.258883,201.885128 L581.052736,195.044725 Z M18.9472641,195.044725 L37.7411165,201.885128 L36.0310158,206.583591 L17.2371634,199.743189 L18.9472641,195.044725 Z M570.83579,170.948752 L572.948882,175.480291 L554.822726,183.932656 L552.709635,179.401117 L570.83579,170.948752 Z M29.1642095,170.948752 L47.2903653,179.401117 L45.177274,183.932656 L27.0511182,175.480291 L29.1642095,170.948752 Z M558.557621,147.834936 L561.057621,152.165064 L543.737113,162.165064 L541.237113,157.834936 L558.557621,147.834936 Z M41.4423789,147.834936 L58.7628869,157.834936 L56.2628869,162.165064 L38.9423789,152.165064 L41.4423789,147.834936 Z M544.311672,125.879189 L547.179554,129.974949 L530.796513,141.446478 L527.928631,137.350718 L544.311672,125.879189 Z M55.6883278,125.879189 L72.0713687,137.350718 L69.2034865,141.446478 L52.8204456,129.974949 L55.6883278,125.879189 Z M528.206364,105.248606 L531.420302,109.078828 L516.099413,121.93458 L512.885475,118.104358 L528.206364,105.248606 Z M71.7936361,105.248606 L87.114525,118.104358 L83.9005869,121.93458 L68.579698,109.078828 L71.7936361,105.248606 Z M510.364267,86.1001987 L513.899801,89.6357326 L499.757666,103.777868 L496.222132,100.242334 L510.364267,86.1001987 Z M89.6357326,86.1001987 L103.777868,100.242334 L100.242334,103.777868 L86.1001987,89.6357326 L89.6357326,86.1001987 Z M490.921172,68.579698 L494.751394,71.7936361 L481.895642,87.114525 L478.06542,83.9005869 L490.921172,68.579698 Z M109.078828,68.579698 L121.93458,83.9005869 L118.104358,87.114525 L105.248606,71.7936361 L109.078828,68.579698 Z M470.025051,52.8204456 L474.120811,55.6883278 L462.649282,72.0713687 L458.553522,69.2034865 L470.025051,52.8204456 Z M129.974949,52.8204456 L141.446478,69.2034865 L137.350718,72.0713687 L125.879189,55.6883278 L129.974949,52.8204456 Z M447.834936,38.9423789 L452.165064,41.4423789 L442.165064,58.7628869 L437.834936,56.2628869 L447.834936,38.9423789 Z M152.165064,38.9423789 L162.165064,56.2628869 L157.834936,58.7628869 L147.834936,41.4423789 L152.165064,38.9423789 Z M424.519709,27.0511182 L429.051248,29.1642095 L420.598883,47.2903653 L416.067344,45.177274 L424.519709,27.0511182 Z M175.480291,27.0511182 L183.932656,45.177274 L179.401117,47.2903653 L170.948752,29.1642095 L175.480291,27.0511182 Z M400.256811,17.2371634 L404.955275,18.9472641 L398.114872,37.7411165 L393.416409,36.0310158 L400.256811,17.2371634 Z M199.743189,17.2371634 L206.583591,36.0310158 L201.885128,37.7411165 L195.044725,18.9472641 L199.743189,17.2371634 Z M375.230899,9.5752045 L380.060528,10.8692997 L374.884147,30.1878163 L370.054518,28.893721 L375.230899,9.5752045 Z M224.769101,9.5752045 L229.945482,28.893721 L225.115853,30.1878163 L219.939472,10.8692997 L224.769101,9.5752045 Z M349.632434,4.12355365 L354.556473,4.99179454 L351.083509,24.6879496 L346.15947,23.8197087 L349.632434,4.12355365 Z M250.367566,4.12355365 L253.84053,23.8197087 L248.916491,24.6879496 L245.443527,4.99179454 L250.367566,4.12355365 Z M323.656236,0.923701216 L328.63721,1.35947993 L326.894095,21.2833739 L321.913121,20.8475952 L323.656236,0.923701216 Z M276.343764,0.923701216 L278.086879,20.8475952 L273.105905,21.2833739 L271.36279,1.35947993 L276.343764,0.923701216 Z M302.5,0 L302.5,20 L297.5,20 L297.5,0 L302.5,0 Z" id="Rectangle-2"/>
                </g>
    </g>
</svg>