<svg xmlns="http://www.w3.org/2000/svg" width="1440" height="702" viewBox="0 0 1440 702">
    <g fill="none" fill-rule="evenodd" stroke-linecap="square">
        <g stroke="#1AFFFC" stroke-width=".1">
            <g>
                <g>
                    <g>
                        <path d="M0 1L1440 1M0 21L1440 21M0 41L1440 41M0 61L1440 61M0 81L1440 81M0 101L1440 101M0 121L1440 121M0 141L1440 141M0 161L1440 161M0 181L1440 181M0 201L1440 201M0 221L1440 221M0 241L1440 241M0 261L1440 261M0 281L1440 281M0 301L1440 301M0 321L1440 321M0 341L1440 341M0 361L1440 361M0 381L1440 381M0 401L1440 401M0 421L1440 421M0 441L1440 441M0 461L1440 461M0 481L1440 481M0 501L1440 501M0 521L1440 521M0 541L1440 541M0 561L1440 561M0 581L1440 581M0 601L1440 601M0 621L1440 621M0 641L1440 641M0 661L1440 661M0 681L1440 681M0 701L1440 701" transform="translate(-1 -209) translate(1 209)"/>
                    </g>
                </g>
            </g>
        </g>
    </g>
</svg>
