<svg xmlns="http://www.w3.org/2000/svg" width="45" height="33" viewBox="0 0 45 33">
    <g fill="none" fill-rule="evenodd">
        <g fill="#fff" fill-rule="nonzero">
            <g>
                <g>
                    <path d="M10.536 3.395l1.18 2.028 1.376-.788-1.182-2.03C14.849 1.048 18.177.12 21.712 0v2.44h1.576V0c3.458.118 6.719 1.009 9.61 2.504L31.684 4.59l1.365.781 1.22-2.097c2.872 1.749 5.317 4.118 7.145 6.92l-2.215 1.268.788 1.354 2.236-1.281c1.621 2.912 2.604 6.222 2.761 9.745h-2.676v1.563H45c-.088 3.539-1.008 6.873-2.574 9.818l-2.364-1.354-.502.862-1.65-.916c1.554-2.62 2.445-5.673 2.445-8.931 0-9.75-7.977-17.653-17.817-17.653-9.841 0-17.818 7.903-17.818 17.653 0 3.235.878 6.267 2.412 8.874l-1.786.995-.558-.958-2.28 1.305C.983 29.623.088 26.333 0 22.843h2.542V21.28H.016c.154-3.46 1.105-6.716 2.675-9.59l2.097 1.2.788-1.354-2.086-1.194c1.797-2.802 4.208-5.18 7.046-6.947z" transform="translate(-290 -40) translate(290 40)"/>
                </g>
            </g>
        </g>
    </g>
    <g fill="none" fill-rule="evenodd" transform="translate(18,12)">
        <g fill="#fff" fill-rule="nonzero">
            <g>
                <g>
                    <path d="M24.805 23.05c-.076.182-.174.357-.296.524-.855 1.17-2.539 1.455-3.76.635-1.222-.82-1.519-2.433-.664-3.603.11-.151.235-.288.37-.409l10.029-9.31-5.679 12.164z" transform="translate(-309 -51) translate(290 40)"/>
                </g>
            </g>
        </g>
    </g>      
</svg>
