<svg xmlns="http://www.w3.org/2000/svg" width="17" height="10" viewBox="0 0 17 10">
    <g fill="none" fill-rule="evenodd">
        <g fill="#FFF">
            <g>
                <path d="M326 20.5c.552 0 1 .448 1 1V24c0 .552-.448 1-1 1h-1c-.552 0-1-.448-1-1v-2.5c0-.552.448-1 1-1h1zm4.5-1.5c.552 0 1 .448 1 1v4c0 .552-.448 1-1 1h-1c-.552 0-1-.448-1-1v-4c0-.552.448-1 1-1h1zm4.5-2c.552 0 1 .448 1 1v6c0 .552-.448 1-1 1h-1c-.552 0-1-.448-1-1v-6c0-.552.448-1 1-1h1zm4.5-2c.552 0 1 .448 1 1v8c0 .552-.448 1-1 1h-1c-.552 0-1-.448-1-1v-8c0-.552.448-1 1-1h1z" transform="translate(-324 -265) translate(0 250)"/>
            </g>
        </g>
    </g>
</svg>
