<svg xmlns="http://www.w3.org/2000/svg" width="20" height="20" viewBox="0 0 20 20">
    <g fill="none" fill-rule="evenodd">
        <g fill="#FFF" fill-rule="nonzero">
            <g>
                <g>
                    <g>
                        <path d="M27.378 23.91c.011-.464-.312-.846-.743-.907-.905-.119-1.792-.34-2.649-.66-.32-.12-.68-.043-.918.193l-1.11 1.11c-.278.278-.708.336-1.05.142-2.324-1.322-4.249-3.246-5.57-5.57-.195-.342-.137-.772.142-1.05l1.106-1.107c.24-.242.316-.602.196-.923-.32-.855-.54-1.743-.658-2.639-.062-.434-.436-.756-.883-.751h-2.62c-.246 0-.48.103-.645.284-.165.182-.247.424-.226.654.272 2.565 1.145 5.03 2.55 7.2 1.274 2.003 2.972 3.701 4.982 4.978 2.154 1.397 4.606 2.27 7.144 2.546.245.022.488-.06.669-.227.181-.166.284-.401.283-.65V23.91zm1.748.01v2.609c.003.738-.306 1.443-.85 1.942-.543.499-1.273.745-2.023.677-2.825-.306-5.538-1.272-7.915-2.813-2.22-1.41-4.102-3.292-5.508-5.505-1.551-2.395-2.517-5.122-2.82-7.973-.066-.732.18-1.46.675-2.003.496-.543 1.198-.853 1.935-.854h2.613c1.315-.013 2.437.952 2.622 2.263.102.773.291 1.533.563 2.262.36.958.13 2.038-.593 2.769l-.627.626c1.028 1.612 2.396 2.98 4.007 4.007l.63-.63c.728-.72 1.808-.95 2.764-.59.731.273 1.49.462 2.272.565 1.314.185 2.282 1.323 2.255 2.649z" transform="translate(-320 -595) translate(285 295) translate(25 290)"/>
                    </g>
                </g>
            </g>
        </g>
    </g>
</svg>
