<svg xmlns="http://www.w3.org/2000/svg" xmlns:xlink="http://www.w3.org/1999/xlink" width="138" height="41" viewBox="0 0 138 41">
    <defs>
        <linearGradient id="ont8vfu2bb" x1="50%" x2="50%" y1="0%" y2="38.913%">
            <stop offset="0%" stop-color="#FBDA09"/>
            <stop offset="100%" stop-color="#FFBC00"/>
        </linearGradient>
        <linearGradient id="qciuvr3lec" x1="37.347%" x2="54.886%" y1="58.476%" y2="39.083%">
            <stop offset="0%" stop-color="#01E2FF"/>
            <stop offset="100%" stop-color="#01C4FF"/>
        </linearGradient>
        <linearGradient id="upmnr3w36e" x1="20.281%" x2="83.82%" y1="32.667%" y2="69.492%">
            <stop offset="0%" stop-color="#28D781"/>
            <stop offset="100%" stop-color="#02F076"/>
        </linearGradient>
        <linearGradient id="k7912pykif" x1="74.488%" x2="10.108%" y1="35.367%" y2="68.503%">
            <stop offset="0%" stop-color="#F2414E"/>
            <stop offset="100%" stop-color="#E02554"/>
        </linearGradient>
        <path id="wsl173yg9a" d="M10.146 2.437c.805-1.388 2.11-1.388 2.916 0l11.206 19.312c.806 1.387.171 2.512-1.431 2.512H.372c-1.596 0-2.237-1.125-1.432-2.512L10.146 2.437z"/>
    </defs>
    <g fill="none" fill-rule="evenodd">
        <g>
            <g>
                <g>
                    <g>
                        <g stroke-linejoin="square" transform="translate(-1197 -968) translate(0 943) translate(1034 25) translate(163.907)">
                            <rect width="135.173" height="40.081" x=".46" y=".46" fill="#000" stroke="#A6A6A6" stroke-width=".919" rx="4.597"/>
                            <rect width="135.593" height="40.5" x=".25" y=".25" stroke="#8F8F8F" stroke-width=".5" rx="4.597"/>
                        </g>
                        <g>
                            <g fill="#FFF">
                                <path d="M30.385 0c1.82 0 3.295 1.465 3.295 3.273 0 1.807-1.475 3.272-3.295 3.272-1.82 0-3.295-1.465-3.295-3.272C27.09 1.465 28.566 0 30.385 0zm0 1c-1.263 0-2.288 1.018-2.288 2.273 0 1.255 1.025 2.272 2.288 2.272 1.264 0 2.288-1.017 2.288-2.272S31.65 1 30.385 1zM10.708.273V1H8.053v1.909h2.38v.727h-2.38v2h2.655v.728h-3.66V.273h3.66zM15.833.273V1h-1.556v5.364h-1.006L13.27 1h-1.555V.273h4.118zM24.802.273V1h-1.556v5.364H22.24L22.239 1h-1.555V.273h4.118zM18.762.273H19.769000000000002V6.364H18.762zM35.51 1.609v4.755h-1.006V.273h1.19l2.745 4.456V.273h1.007v6.09h-1.007L35.51 1.61z" transform="translate(-1197 -968) translate(0 943) translate(1034 25) translate(163.907) translate(9.934 6) translate(31.8 .727)"/>
                                <g>
                                    <path d="M3.275 2.925L6.031 2.925 6.004 3.791 3.275 3.791z" transform="translate(-1197 -968) translate(0 943) translate(1034 25) translate(163.907) translate(9.934 6) translate(31.8 .727) translate(0 .09)"/>
                                    <path d="M3.234 0c.934 0 1.718.324 2.255.886l-.63.626c-.394-.4-.953-.618-1.598-.618C1.973.894.928 1.93.928 3.209S1.973 5.524 3.26 5.524c1.289 0 2.204-.74 2.202-2.315.002-.098 0-.193-.007-.285h.804l.002.033c.293 2.135-1.116 3.394-2.853 3.458l-.175.003C1.448 6.415 0 4.98 0 3.208 0 1.438 1.448 0 3.234 0z" transform="translate(-1197 -968) translate(0 943) translate(1034 25) translate(163.907) translate(9.934 6) translate(31.8 .727) translate(0 .09)"/>
                                </g>
                            </g>
                            <g fill="#FFF">
                                <g>
                                    <path d="M5.646 0l.024.005c.282.056 2.963.68 2.963 3.907 0 3.407-2.987 3.912-2.987 3.912H.458V0h5.188zm-.654 1.893H1.464V6.09h3.544c.192-.01 1.582-.145 1.582-2.1 0-2.099-1.603-2.099-1.603-2.099z" transform="translate(-1197 -968) translate(0 943) translate(1034 25) translate(163.907) translate(9.934 6) translate(31.342 11.455) translate(57.11 .455)"/>
                                    <path d="M0 0H1.83V12.727H0z" transform="translate(-1197 -968) translate(0 943) translate(1034 25) translate(163.907) translate(9.934 6) translate(31.342 11.455) translate(57.11 .455)"/>
                                </g>
                                <path d="M66.811.455H68.641V13.182H66.811zM73.531 4.727c3.095 0 3.693 2.062 3.724 2.851l.001.054v5.546h-1.83l.001-.907c-.504.413-1.31.803-2.585.882-2.916.18-2.918-2.463-2.918-2.641v-.023c-.006-.292-.069-2.322 2.176-2.654 1.644-.243 2.795.162 3.326.419v-.372c-.13-.495-.534-1.408-1.749-1.408-1.666 0-2.034.895-2.034.895l-1.525-.895s.853-1.747 3.413-1.747zm-1.885 5.842c-.123 1.968 3.383 1.023 3.696-.372 0-.443-.047-.651-.047-.651s-3.527-.944-3.65 1.023zM79.258 5l2.347 5.539 2.33-5.495h1.83l-4.951 11.683h-1.83L80.69 12.7 77.427 5h1.83zM49.14 4.727c3.07 0 3.872 3.248 3.872 3.248l-5.79 2.377s.374 1.314 2.115 1.323c1.363.007 2.132-1.2 2.132-1.2l1.469.988s-1.185 1.904-3.613 1.904c-2.983 0-4.296-2.59-4.296-4.274 0-1.62 1.042-4.366 4.111-4.366zm-.176 1.677c-2.363.43-2.066 2.483-2.066 2.483l3.911-1.585s-.728-1.1-1.845-.898zM42.283.455H44.219V13.156H42.283zM36.787 4.729c1.619-.046 2.397 1.067 2.397 1.067v-.793l1.79.016v8.013c0 2.048-1.227 4.21-4.116 4.21-2.89 0-3.822-2.544-3.822-2.544l1.644-.686s.501 1.567 2.263 1.567c2.007 0 2.241-1.814 2.241-2.435v-.87s-.694 1.08-2.419 1.08c-1.87 0-4.092-1.591-4.092-4.304s2.093-4.265 4.114-4.321zm.131 1.69c-1.305 0-2.364 1.188-2.364 2.654 0 1.465 1.059 2.653 2.364 2.653 1.306 0 2.364-1.188 2.364-2.653 0-1.466-1.058-2.653-2.364-2.653zM27.512 4.727c2.406 0 4.357 1.934 4.357 4.318 0 2.385-1.95 4.319-4.357 4.319-2.406 0-4.357-1.934-4.357-4.319 0-2.384 1.95-4.318 4.357-4.318zm-.028 1.694c-1.353 0-2.45 1.175-2.45 2.624 0 1.45 1.097 2.625 2.45 2.625 1.352 0 2.449-1.175 2.449-2.625s-1.097-2.624-2.45-2.624zM18.085 4.727c2.407 0 4.357 1.934 4.357 4.318 0 2.385-1.95 4.319-4.357 4.319-2.406 0-4.357-1.934-4.357-4.319 0-2.384 1.951-4.318 4.357-4.318zm-.028 1.694c-1.353 0-2.45 1.175-2.45 2.624 0 1.45 1.097 2.625 2.45 2.625 1.352 0 2.449-1.175 2.449-2.625s-1.097-2.624-2.45-2.624z" transform="translate(-1197 -968) translate(0 943) translate(1034 25) translate(163.907) translate(9.934 6) translate(31.342 11.455)"/>
                                <g>
                                    <path d="M6.835 6.096L12.587 6.096 12.53 7.903 6.835 7.903z" transform="translate(-1197 -968) translate(0 943) translate(1034 25) translate(163.907) translate(9.934 6) translate(31.342 11.455)"/>
                                    <path d="M6.75 0c1.948 0 3.586.675 4.706 1.847l-1.317 1.304c-.821-.832-1.987-1.288-3.333-1.288-2.69 0-4.87 2.16-4.87 4.826 0 2.665 2.18 4.826 4.87 4.826s4.6-1.54 4.595-4.826c.005-.203 0-.4-.014-.593h1.679l.002.067c.62 4.512-2.409 7.146-6.1 7.214h-.219C3.022 13.374 0 10.384 0 6.69 0 2.995 3.022 0 6.75 0z" transform="translate(-1197 -968) translate(0 943) translate(1034 25) translate(163.907) translate(9.934 6) translate(31.342 11.455)"/>
                                </g>
                            </g>
                            <g transform="translate(-1197 -968) translate(0 943) translate(1034 25) translate(163.907) translate(9.934 6) translate(.042 1.09)">
                                <mask id="hjfy2vkukd" fill="#fff">
                                    <use xlink:href="#wsl173yg9a"/>
                                </mask>
                                <use fill="url(#ont8vfu2bb)" transform="rotate(90 11.605 12.829)" xlink:href="#wsl173yg9a"/>
                                <path fill="url(#qciuvr3lec)" d="M0 -0.009L12.794 12.622 -0.165 25.751z" mask="url(#hjfy2vkukd)"/>
                                <path fill="url(#upmnr3w36e)" d="M-2.631 -2.609L12.792 12.625 17.377 8.28z" mask="url(#hjfy2vkukd)"/>
                                <path fill="url(#k7912pykif)" d="M12.794 12.622L19.814 19.651 -1.157 26.679z" mask="url(#hjfy2vkukd)"/>
                            </g>
                        </g>
                    </g>
                </g>
            </g>
        </g>
    </g>
</svg>
