<svg xmlns="http://www.w3.org/2000/svg" width="17" height="17" viewBox="0 0 17 17">
    <g fill="none" fill-rule="evenodd">
        <g fill="#F36">
            <g>
                <path d="M71.212 16.108c-1.303 0-2.51.413-3.504 1.11l8.507 8.508c.698-.994 1.111-2.2 1.111-3.504 0-3.372-2.742-6.114-6.114-6.114m0 12.228c1.303 0 2.51-.412 3.502-1.11l-8.506-8.506c-.698.993-1.11 2.2-1.11 3.502 0 3.37 2.743 6.114 6.114 6.114m-.004 2.08c-4.533 0-8.208-3.676-8.208-8.208C63 17.675 66.675 14 71.208 14c4.532 0 8.207 3.675 8.207 8.208 0 4.532-3.675 8.207-8.207 8.207" transform="translate(-63 -502) translate(0 488)"/>
            </g>
        </g>
    </g>
</svg>
