<svg xmlns="http://www.w3.org/2000/svg" xmlns:xlink="http://www.w3.org/1999/xlink" width="22" height="22" viewBox="0 0 22 22">
    <defs>
        <path id="auirl1rnha" d="M11 0c1.519 0 2.75 1.231 2.75 2.75v.079c0 .237.143.452.37.549.223.098.483.051.65-.112l.055-.055c.516-.516 1.216-.806 1.945-.806.73 0 1.43.29 1.945.806.517.515.807 1.215.807 1.945s-.29 1.43-.806 1.946l-.048.047c-.17.174-.218.435-.12.658.027.058.046.12.06.182.108.16.29.26.486.261h.156C20.769 8.25 22 9.481 22 11s-1.231 2.75-2.75 2.75h-.079c-.237 0-.452.143-.545.361-.102.232-.055.492.108.66l.055.054c.516.516.806 1.216.806 1.945 0 .73-.29 1.43-.806 1.945-.515.517-1.215.807-1.945.807s-1.43-.29-1.946-.806l-.047-.048c-.174-.17-.435-.218-.667-.115-.218.093-.36.307-.36.541v.156c0 1.519-1.232 2.75-2.75 2.75-1.52 0-2.75-1.231-2.75-2.75-.006-.306-.16-.522-.444-.628-.223-.098-.483-.051-.65.112l-.055.055c-.516.516-1.216.806-1.945.806-.73 0-1.43-.29-1.945-.806-.517-.515-.807-1.215-.807-1.945s.29-1.43.806-1.946l.048-.047c.17-.174.218-.435.115-.667-.093-.218-.307-.36-.541-.36H2.75c-1.519 0-2.75-1.232-2.75-2.75 0-1.52 1.231-2.75 2.75-2.75.306-.006.522-.16.628-.444.098-.223.051-.483-.112-.65l-.055-.055c-.516-.516-.806-1.216-.806-1.945 0-.73.29-1.43.806-1.945.515-.517 1.215-.807 1.945-.807s1.43.29 1.946.806l.047.048c.174.17.435.218.658.12.058-.027.12-.046.182-.06.16-.108.26-.29.261-.486V2.75C8.25 1.231 9.481 0 11 0zm0 1.833c-.506 0-.917.41-.917.917v.16c-.004.968-.582 1.841-1.472 2.223-.077.033-.159.055-.242.066-.866.304-1.838.093-2.509-.563l-.055-.056c-.172-.172-.405-.269-.649-.269-.243 0-.476.097-.649.27-.172.172-.269.405-.269.649 0 .243.097.476.27.648l.061.063c.695.71.887 1.77.508 2.625-.344.937-1.226 1.567-2.244 1.59H2.75c-.506 0-.917.411-.917.917 0 .507.41.917.917.917h.16c.968.004 1.841.582 2.219 1.463.4.909.208 1.97-.493 2.687l-.056.055c-.172.172-.269.405-.269.649 0 .243.097.476.27.649.172.172.405.269.649.269.243 0 .476-.097.648-.27l.063-.061c.71-.695 1.77-.887 2.625-.508.937.344 1.567 1.226 1.59 2.245v.082c0 .506.411.917.917.917.507 0 .917-.41.917-.917v-.16c.004-.968.582-1.841 1.463-2.219.909-.4 1.97-.208 2.687.493l.055.056c.172.172.405.269.649.269.243 0 .476-.097.649-.27.172-.172.269-.405.269-.649 0-.243-.097-.476-.27-.648l-.061-.063c-.695-.71-.887-1.77-.486-2.68.377-.88 1.25-1.458 2.223-1.462h.082c.506 0 .917-.41.917-.917 0-.506-.41-.917-.917-.917h-.16c-.968-.004-1.841-.582-2.223-1.472-.033-.077-.055-.159-.066-.242-.304-.866-.093-1.838.563-2.509l.056-.055c.172-.172.269-.405.269-.649 0-.243-.097-.476-.27-.649-.172-.172-.405-.269-.649-.269-.243 0-.476.097-.648.27l-.063.061c-.71.695-1.77.887-2.67.49-.89-.381-1.468-1.255-1.472-2.227V2.75c0-.506-.41-.917-.917-.917z"/>
    </defs>
    <g fill="none" fill-rule="evenodd">
        <g>
            <g>
                <g>
                    <g transform="translate(-945 -24) translate(106 21) translate(632 3) translate(207)">
                        <use fill="#FFF" fill-rule="nonzero" xlink:href="#auirl1rnha"/>
                    </g>
                </g>
            </g>
        </g>
    </g>
</svg>
