<svg xmlns="http://www.w3.org/2000/svg" xmlns:xlink="http://www.w3.org/1999/xlink" width="18" height="18" viewBox="0 0 18 18">
    <defs>
        <path id="r1tbw7xmha" d="M9 0c1.243 0 2.25 1.007 2.25 2.25v.065c0 .194.117.37.303.449.182.08.395.042.532-.092l.044-.045c.422-.422.995-.66 1.592-.66.597 0 1.17.238 1.592.66.422.422.66.995.66 1.592 0 .597-.238 1.17-.66 1.591l-.04.04c-.139.142-.177.355-.097.537.021.048.037.098.048.15.09.13.238.212.399.213h.127C16.993 6.75 18 7.757 18 9s-1.007 2.25-2.25 2.25h-.065c-.194 0-.37.117-.446.295-.083.19-.045.403.089.54l.045.044c.422.422.66.995.66 1.592 0 .597-.238 1.17-.66 1.592-.422.422-.995.66-1.592.66-.597 0-1.17-.238-1.591-.66l-.04-.04c-.142-.139-.355-.177-.545-.094-.178.077-.294.252-.295.444v.127c0 1.243-1.007 2.25-2.25 2.25s-2.25-1.007-2.25-2.25c-.004-.25-.131-.427-.363-.514-.182-.08-.395-.042-.532.092l-.044.045c-.422.422-.995.66-1.592.66-.597 0-1.17-.238-1.592-.66-.422-.422-.66-.995-.66-1.592 0-.597.238-1.17.66-1.591l.04-.04c.139-.142.177-.355.094-.545-.077-.178-.252-.294-.444-.295H2.25C1.007 11.31 0 10.303 0 9.06s1.007-2.25 2.25-2.25c.25-.004.427-.131.514-.363.08-.182.042-.395-.092-.532l-.045-.044c-.422-.422-.66-.995-.66-1.592 0-.597.238-1.17.66-1.592.422-.422.995-.66 1.592-.66.597 0 1.17.238 1.591.66l.04.04c.142.139.355.177.537.097.048-.021.098-.037.15-.048.13-.09.212-.238.213-.398V2.25C6.75 1.007 7.757 0 9 0zm0 1.5c-.414 0-.75.336-.75.75v.13c-.003.793-.476 1.507-1.205 1.82-.063.027-.13.045-.198.054-.708.248-1.504.076-2.052-.461l-.046-.045c-.14-.141-.331-.22-.53-.22-.2 0-.39.079-.531.22-.141.14-.22.332-.22.53 0 .2.079.39.22.532l.05.05c.569.581.726 1.45.416 2.149-.282.766-1.003 1.282-1.837 1.301H2.25c-.414 0-.75.336-.75.75s.336.75.75.75h.13c.793.003 1.507.476 1.816 1.197.328.743.17 1.612-.403 2.198l-.045.046c-.141.14-.22.331-.22.53 0 .2.079.39.22.531.14.141.332.22.53.22.2 0 .39-.079.532-.22l.05-.05c.581-.569 1.45-.726 2.149-.416.766.282 1.282 1.003 1.301 1.836v.068c0 .414.336.75.75.75s.75-.336.75-.75v-.13c.003-.793.476-1.507 1.197-1.816.743-.328 1.612-.17 2.198.403l.046.045c.14.141.331.22.53.22.2 0 .39-.079.531-.22.141-.14.22-.332.22-.53 0-.2-.079-.39-.22-.532l-.05-.05c-.569-.581-.726-1.45-.398-2.193.309-.72 1.023-1.194 1.818-1.197h.068c.414 0 .75-.336.75-.75s-.336-.75-.75-.75h-.13c-.793-.003-1.507-.476-1.82-1.205-.027-.063-.045-.13-.054-.198-.248-.708-.076-1.504.461-2.052l.045-.046c.141-.14.22-.331.22-.53 0-.2-.079-.39-.22-.531-.14-.141-.332-.22-.53-.22-.2 0-.39.079-.532.22l-.05.05c-.581.569-1.45.726-2.185.401-.729-.312-1.202-1.026-1.205-1.822V2.25c0-.414-.336-.75-.75-.75z"/>
    </defs>
    <g fill="none" fill-rule="evenodd">
        <g>
            <g>
                <g>
                    <g>
                        <g transform="translate(-226 -621) translate(0 612) translate(188) translate(19 9) translate(19)">
                            <use fill="#fff" fill-rule="nonzero" xlink:href="#r1tbw7xmha"/>
                            <path stroke="#fff" stroke-width="1.5" d="M9 6.75c-.621 0-1.184.252-1.591.659-.407.407-.659.97-.659 1.591s.252 1.184.659 1.591c.407.407.97.659 1.591.659s1.184-.252 1.591-.659c.407-.407.659-.97.659-1.591s-.252-1.184-.659-1.591c-.407-.407-.97-.659-1.591-.659z"/>
                        </g>
                    </g>
                </g>
            </g>
        </g>
    </g>
</svg>
