<svg xmlns="http://www.w3.org/2000/svg" width="16" height="15" viewBox="0 0 16 15">
    <g fill="none" fill-rule="evenodd">
        <g fill="#1AFFFC" fill-rule="nonzero">
            <g>
                <g>
                    <g>
                        <path d="M45.156.441l-1.417 4.751h-5.163c-.247 0-.467.159-.546.393-.079.234 0 .493.197.643l4.186 3.26-1.42 4.704c-.058.189-.024.394.093.553.116.16.301.254.499.255.132 0 .261-.045.366-.127l3.782-2.867 3.779 2.867c.104.082.233.126.366.127.198-.002.382-.097.499-.257.116-.16.15-.365.092-.554L49.05 9.488l4.186-3.26c.194-.15.271-.408.193-.64-.08-.233-.297-.39-.542-.393h-5.152L46.32.445c-.073-.26-.308-.44-.577-.442-.28 0-.515.18-.588.438z" transform="translate(-169 -125) translate(131 125)"/>
                    </g>
                </g>
            </g>
        </g>
    </g>
</svg>
