<svg xmlns="http://www.w3.org/2000/svg" width="14" height="14" viewBox="0 0 14 14">
    <g fill="none" fill-rule="evenodd">
        <g fill="#BDBECB" fill-rule="nonzero">
            <g>
                <g>
                    <path d="M689.293 25.293c.39-.39 1.024-.39 1.414 0L696 30.585l5.293-5.292c.36-.36.928-.388 1.32-.083l.094.083c.39.39.39 1.024 0 1.414L697.415 32l5.292 5.293c.36.36.388.928.083 1.32l-.083.094c-.39.39-1.024.39-1.414 0L696 33.415l-5.293 5.292c-.36.36-.928.388-1.32.083l-.094-.083c-.39-.39-.39-1.024 0-1.414L694.585 32l-5.292-5.293c-.36-.36-.388-.928-.083-1.32z" transform="translate(-975 -230) translate(286 205)"/>
                </g>
            </g>
        </g>
    </g>
</svg>
