<svg xmlns="http://www.w3.org/2000/svg" width="6" height="12" viewBox="0 0 6 12">
    <g fill="none" fill-rule="evenodd">
        <g fill="#1afffc" fill-rule="nonzero">
            <g>
                <g>
                    <g>
                        <g>
                            <g>
                                <path d="M9.942 6.067c.429-.409 1.039-.547 1.615-.564.608-.005 1.217-.002 1.825-.002.003.642.003 1.285 0 1.927h-1.18c-.25-.016-.506.173-.551.42-.006.43-.002.86-.002 1.29.577.002 1.154-.001 1.73 0-.041.622-.119 1.241-.209 1.857-.51.005-1.02 0-1.53.003-.004 1.833.003 3.667-.003 5.5-.757.003-1.514-.002-2.271.002-.014-1.834.001-3.668-.008-5.502-.37-.004-.739.003-1.108-.003V9.146c.37-.004.739.001 1.108-.002.011-.6-.011-1.2.012-1.798.037-.474.217-.952.572-1.28z" transform="translate(-1233 -857) translate(100 773) translate(947 79) translate(118) translate(60)"/>
                            </g>
                        </g>
                    </g>
                </g>
            </g>
        </g>
    </g>
</svg>
