<svg xmlns="http://www.w3.org/2000/svg" width="8" height="11" viewBox="0 0 8 11">
    <g fill="none" fill-rule="evenodd">
        <g fill="#FFF" fill-rule="nonzero">
            <g>
                <g>
                    <g>
                        <g>
                            <path d="M5.733 6.083c-.378-.268-.721-.66-.727-.78 0-.22.02-.325.512-.709.636-.498.987-1.153.987-1.845 0-.628-.192-1.186-.518-1.578h.253c.052 0 .104-.016.146-.046l.706-.512c.088-.063.125-.175.091-.278C7.15.233 7.055.163 6.947.163h-3.16c-.346 0-.697.06-1.042.18C1.593.74.788 1.72.788 2.727c0 1.428 1.105 2.51 2.583 2.544-.028.113-.043.224-.043.333 0 .22.056.429.17.63h-.04c-1.41 0-2.68.691-3.164 1.72-.125.268-.19.538-.19.805 0 .26.067.51.198.745.303.543.955.964 1.836 1.186.454.115.943.173 1.45.173.456 0 .89-.058 1.292-.175 1.253-.363 2.063-1.285 2.063-2.35 0-1.021-.329-1.633-1.21-2.256zM1.742 8.421c0-.743.943-1.395 2.02-1.395h.028c.234.003.463.038.678.104l.213.146c.499.34.828.563.92.923.021.09.032.181.032.27 0 .924-.69 1.393-2.051 1.393-1.032 0-1.84-.633-1.84-1.441zm.979-7.02c.168-.192.388-.294.635-.294h.028c.699.021 1.367.8 1.49 1.736.07.524-.048 1.017-.311 1.317-.169.193-.386.294-.643.294h-.012c-.684-.02-1.367-.829-1.489-1.764-.069-.523.041-.992.302-1.29z" transform="translate(-1216 -904) translate(100 773) translate(947 79) translate(153 25) translate(11 21) translate(5 6)"/>
                        </g>
                    </g>
                </g>
            </g>
        </g>
    </g>
</svg>
