<svg xmlns="http://www.w3.org/2000/svg" width="13" height="18" viewBox="0 0 13 18">
    <g fill="none" fill-rule="evenodd">
        <g fill="#FFF" fill-rule="nonzero">
            <g>
                <g>
                    <g>
                        <g>
                            <path d="M10.046 10.273c-.617-.434-1.178-1.069-1.187-1.264 0-.356.032-.526.836-1.147 1.039-.807 1.611-1.867 1.611-2.988 0-1.017-.313-1.92-.846-2.554h.414c.085 0 .17-.026.237-.076l1.154-.829c.143-.102.204-.283.149-.45-.055-.165-.21-.278-.386-.278h-5.16c-.564 0-1.138.099-1.701.29-1.88.644-3.195 2.233-3.195 3.864 0 2.311 1.805 4.063 4.218 4.118-.047.183-.07.364-.07.54 0 .357.09.694.278 1.02H6.33c-2.3 0-4.377 1.12-5.165 2.785-.205.433-.31.871-.31 1.304 0 .42.11.825.323 1.205.495.879 1.56 1.56 2.997 1.92.742.187 1.54.282 2.368.282.744 0 1.454-.096 2.11-.284 2.045-.589 3.367-2.082 3.367-3.805 0-1.654-.536-2.644-1.975-3.653zm-6.517 3.785c0-1.203 1.541-2.258 3.298-2.258h.047c.382.005.755.06 1.106.167.121.083.237.162.35.237.813.55 1.35.913 1.5 1.495.035.147.053.293.053.436 0 1.498-1.127 2.257-3.35 2.257-1.684 0-3.004-1.025-3.004-2.334zM5.128 2.691c.274-.31.634-.475 1.037-.475l.046.001c1.14.033 2.232 1.294 2.432 2.81.113.848-.077 1.646-.508 2.133-.275.311-.63.476-1.05.476h-.019C5.95 7.6 4.835 6.293 4.636 4.779c-.113-.846.067-1.607.492-2.088z" transform="translate(-529 -596) translate(285 295) translate(25 290) translate(210) translate(9 11)"/>
                        </g>
                    </g>
                </g>
            </g>
        </g>
    </g>
</svg>
