<svg xmlns="http://www.w3.org/2000/svg" width="18" height="18" viewBox="0 0 18 18">
    <g fill="none" fill-rule="evenodd">
        <g fill="#BDBECB">
            <g>
                <path d="M11.015 16.097c0-1.383.47-2.658 1.252-3.68.994-1.302 2.496-2.196 4.21-2.37.204-.022.41-.032.62-.032.952 0 1.85.225 2.653.616 2.028.987 3.433 3.063 3.433 5.467 0 3.355-2.73 6.085-6.084 6.085-1.671 0-3.187-.677-4.287-1.773-.004-.004-.01-.006-.013-.012l-.018-.019c-1.09-1.1-1.766-2.614-1.766-4.282zm16.957 9.442l-5.193-5.195c.108-.145.213-.294.31-.447.699-1.099 1.11-2.4 1.11-3.799 0-3.92-3.18-7.098-7.1-7.098-2.414 0-4.542 1.207-5.825 3.048-.801 1.15-1.274 2.544-1.274 4.05 0 3.922 3.18 7.1 7.098 7.1 1.595 0 3.062-.532 4.246-1.42l5.195 5.194 1.433-1.433z" transform="translate(-30 -222) translate(20 213)"/>
            </g>
        </g>
    </g>
</svg>
