<?xml version="1.0" encoding="UTF-8"?>
<svg width="11px" height="11px" viewBox="0 0 11 11" version="1.1" xmlns="http://www.w3.org/2000/svg" xmlns:xlink="http://www.w3.org/1999/xlink">
    <title>Group@2x</title>
    <g id="Website" stroke="none" stroke-width="1" fill="none" fill-rule="evenodd">
        <g id="#4.Results" transform="translate(-1307.000000, -903.000000)" fill="#FFFFFF" fill-rule="nonzero">
            <g id="Table-Results" transform="translate(100.000000, 773.000000)">
                <g id="share" transform="translate(947.000000, 79.000000)">
                    <g id="more-sharing" transform="translate(153.000000, 25.000000)">
                        <g id="linkedin" transform="translate(101.000000, 21.000000)">
                            <g id="Group" transform="translate(6.000000, 5.000000)">
                                <path d="M2.35714286,11 L0,11 L0,3 L2.35714286,3 L2.35714286,11 Z M11,11 L8.64285714,11 L8.64285714,6.7264 C8.64285714,5.6128 8.25314286,5.0584 7.48078571,5.0584 C6.86871429,5.0584 6.48057143,5.3688 6.28571429,5.9904 C6.28571429,7 6.28571429,11 6.28571429,11 L3.92857143,11 C3.92857143,11 3.96,3.8 3.92857143,3 L5.78914286,3 L5.93292857,4.6 L5.98164286,4.6 C6.46485714,3.8 7.23721429,3.2576 8.29635714,3.2576 C9.10171429,3.2576 9.75307143,3.4856 10.2504286,4.0584 C10.7509286,4.632 11,5.4016 11,6.4824 L11,11 Z" id="Shape"></path>
                                <circle id="Oval" cx="1" cy="1" r="1"></circle>
                            </g>
                        </g>
                    </g>
                </g>
            </g>
        </g>
    </g>
</svg>