<svg xmlns="http://www.w3.org/2000/svg" width="34" height="25" viewBox="0 0 34 25">
    <g fill="none" fill-rule="evenodd">
        <g fill="#FFF" fill-rule="nonzero">
            <g>
                <g>
                    <g>
                        <path d="M7.763 2.501l.87 1.495 1.014-.58-.871-1.497C10.94.773 13.394.089 15.999 0v1.797h1.16V0c2.549.087 4.951.743 7.082 1.845l-.895 1.537 1.006.576.899-1.545c2.116 1.288 3.917 3.034 5.265 5.098l-1.632.935.58.997 1.648-.944c1.194 2.146 1.918 4.585 2.034 7.181h-1.972v1.152h1.984c-.065 2.607-.743 5.064-1.897 7.234l-1.742-.998-.37.635-1.215-.675c1.145-1.93 1.802-4.18 1.802-6.58 0-7.184-5.878-13.008-13.13-13.008-7.25 0-13.128 5.824-13.128 13.007 0 2.384.647 4.619 1.777 6.54l-1.316.733-.411-.706-1.68.962C.725 21.828.065 19.403 0 16.832h1.873V15.68H.01c.115-2.55.815-4.949 1.972-7.067l1.545.885.58-.997-1.536-.88c1.324-2.065 3.1-3.817 5.191-5.12z" transform="translate(-106 -21) translate(106 21)"/>
                    </g>
                </g>
            </g>
        </g>
    </g>
</svg>
