<svg xmlns="http://www.w3.org/2000/svg" width="31" height="30" viewBox="0 0 31 30">
    <defs>
        <radialGradient id="agpnh87xfa" cx="48.34%" cy="49.419%" r="22.666%" fx="48.34%" fy="49.419%" gradientTransform="matrix(.94496 -.18024 .32719 .52055 -.135 .324)">
            <stop offset="0%"/>
            <stop offset="100%" stop-opacity="0"/>
        </radialGradient>
    </defs>
    <g fill="none" fill-rule="evenodd">
        <g>
            <g>
                <g>
                    <g>
                        <g transform="translate(-411 -788) translate(106 208) translate(128 528) translate(167.6 42) translate(10 10)">
                            <rect width="30" height="30" fill="#000" fill-rule="nonzero" rx="4.74"/>
                            <g>
                                <path fill="#B1060F" stroke="#000" stroke-width=".5" d="M7.204.03l-.007 4.478-.008 4.479-.369-1.04v-.002l-.477 9.97c.468 1.322.72 2.028.722 2.03.004.004.27.02.593.036.977.049 2.187.153 3.105.267.213.026.396.04.407.03.01-.01.017-4.57.013-10.133L11.176.03H7.204h0zM.02.016v10.126c0 5.569.006 10.13.012 10.137.007.007.352-.026.767-.072.415-.047.988-.104 1.274-.129.438-.037 1.748-.12 1.9-.122.043 0 .046-.228.052-4.288l.007-4.289.317.897.112.316.476-9.967c-.1-.286-.048-.136-.164-.463L4.04.09 4.014.016H.02z" transform="translate(9 5)"/>
                                <path fill="url(#agpnh87xfa)" d="M.02.016V5.7l4.004 10.62.001-.652.007-4.289.317.897c1.763 4.989 2.71 7.664 2.716 7.67.004.003.27.02.593.035.977.049 2.187.153 3.105.267.213.026.396.04.407.03.007-.007.012-2.243.013-5.397L7.198 3.424l-.002 1.084-.007 4.479-.369-1.04-2.047-5.785L4.04.09 4.014.016H.02z" transform="translate(9 5)"/>
                                <path fill="#E50914" d="M.02.016l4.012 11.368v-.005l.317.897c1.763 4.989 2.71 7.664 2.716 7.67.004.003.27.02.593.035.977.049 2.187.153 3.105.267.212.026.394.04.406.03L7.19 8.984v.003l-.369-1.04-2.047-5.785L4.04.09 4.014.016H.02z" transform="translate(9 5)"/>
                                <path fill="#B1060F" stroke="#000" stroke-width=".5" d="M7.204.03l-.007 4.478-.008 4.479-.369-1.04v-.002l-.477 9.97c.468 1.322.72 2.028.722 2.03.004.004.27.02.593.036.977.049 2.187.153 3.105.267.213.026.396.04.407.03.01-.01.017-4.57.013-10.133L11.176.03H7.204h0zM.02.016v10.126c0 5.569.006 10.13.012 10.137.007.007.352-.026.767-.072.415-.047.988-.104 1.274-.129.438-.037 1.748-.12 1.9-.122.043 0 .046-.228.052-4.288l.007-4.289.317.897.112.316.476-9.967c-.1-.286-.048-.136-.164-.463L4.04.09 4.014.016H.02z" transform="translate(9 5)"/>
                                <path fill="url(#agpnh87xfa)" d="M.02.016V5.7l4.004 10.62.001-.652.007-4.289.317.897c1.763 4.989 2.71 7.664 2.716 7.67.004.003.27.02.593.035.977.049 2.187.153 3.105.267.213.026.396.04.407.03.007-.007.012-2.243.013-5.397L7.198 3.424l-.002 1.084-.007 4.479-.369-1.04-2.047-5.785L4.04.09 4.014.016H.02z" transform="translate(9 5)"/>
                                <path fill="#E50914" d="M.02.016l4.012 11.368v-.005l.317.897c1.763 4.989 2.71 7.664 2.716 7.67.004.003.27.02.593.035.977.049 2.187.153 3.105.267.212.026.394.04.406.03L7.19 8.984v.003l-.369-1.04-2.047-5.785L4.04.09 4.014.016H.02z" transform="translate(9 5)"/>
                            </g>
                        </g>
                    </g>
                </g>
            </g>
        </g>
    </g>
</svg>
