<svg xmlns="http://www.w3.org/2000/svg" width="12" height="12" viewBox="0 0 12 12">
    <g fill="none" fill-rule="evenodd">
        <g>
            <g>
                <g transform="translate(-28 -548) translate(28 538) translate(0 10)">
                    <circle cx="6" cy="6" r="5.55" stroke="#BDBECB" stroke-width=".9"/>
                    <path fill="#BDBECB" fill-rule="nonzero" d="M4.288 3.988c.117-.117.307-.117.424 0 .117.117.117.307 0 .424L3.424 5.7H7.5c.142 0 .261.099.292.231L7.8 6c0 .166-.134.3-.3.3H3.424l1.288 1.288c.1.1.115.254.043.37l-.043.054c-.117.117-.307.117-.424 0l-1.8-1.8-.012-.013c-.008-.008-.015-.017-.021-.026l-.018-.029-.014-.03c-.004-.01-.008-.019-.01-.028C2.403 6.059 2.4 6.03 2.4 6l.004.05-.004-.04V6v-.01c0-.013.002-.027.004-.04.002-.013.005-.025.009-.036.002-.01.006-.019.01-.028l.014-.03c.013-.025.03-.047.05-.068l-.032.04c.006-.01.013-.019.02-.027l.013-.013z"/>
                    <path fill="#BDBECB" fill-rule="nonzero" d="M6.088 3.988c.117-.117.307-.117.424 0 .117.117.117.307 0 .424L5.224 5.7H9.3c.142 0 .261.099.292.231L9.6 6c0 .166-.134.3-.3.3H5.224l1.288 1.288c.1.1.115.254.043.37l-.043.054c-.117.117-.307.117-.424 0l-1.8-1.8-.012-.013c-.008-.008-.015-.017-.021-.026l-.018-.029-.014-.03c-.004-.01-.008-.019-.01-.028C4.203 6.059 4.2 6.03 4.2 6l.004.05-.004-.04V6v-.01c0-.013.002-.027.004-.04.002-.013.005-.025.009-.036.002-.01.006-.019.01-.028l.014-.03c.013-.025.03-.047.05-.068l-.032.04c.006-.01.013-.019.02-.027l.013-.013z" transform="matrix(-1 0 0 1 13.8 0)"/>
                </g>
            </g>
        </g>
    </g>
</svg>
