<?xml version="1.0" encoding="UTF-8"?>
<svg width="40px" height="40px" viewBox="0 0 40 40" version="1.1" xmlns="http://www.w3.org/2000/svg" xmlns:xlink="http://www.w3.org/1999/xlink">
    <title>share_icn@2x</title>
    <g id="Website" stroke="none" stroke-width="1" fill="none" fill-rule="evenodd">
        <g id="#3.End-Speedtest" transform="translate(-1045.000000, -205.000000)">
            <g id="Share" transform="translate(977.000000, 205.000000)">
                <g id="share_icn" transform="translate(68.000000, 0.000000)">
                    <path d="M24.8,11 C26.5673112,11 28,12.4652499 28,14.2727273 C28,16.0802046 26.5673112,17.5454545 24.8,17.5454545 C23.9111421,17.5454545 23.1069276,17.1748162 22.5270535,16.5764112 L18.2803324,19.1102911 C18.3582928,19.3931794 18.4,19.6916084 18.4,20 C18.4,20.3083916 18.3582928,20.6068206 18.2803324,20.8897089 L22.5289938,23.4215882 C23.1087208,22.8243579 23.912133,22.4545455 24.8,22.4545455 C26.5673112,22.4545455 28,23.9197954 28,25.7272727 C28,27.5347501 26.5673112,29 24.8,29 C23.0326888,29 21.6,27.5347501 21.6,25.7272727 C21.6,25.4174401 21.6420979,25.1176633 21.7207629,24.8335991 L17.4735187,22.3030933 C16.8936015,22.901845 16.0891503,23.2727273 15.2,23.2727273 C13.4326888,23.2727273 12,21.8074774 12,20 C12,18.1925226 13.4326888,16.7272727 15.2,16.7272727 C16.0891503,16.7272727 16.8936015,17.098155 17.4735187,17.6969067 L21.7196676,15.1624362 C21.6417072,14.8795478 21.6,14.5811189 21.6,14.2727273 C21.6,12.4652499 23.0326888,11 24.8,11 Z M24.8,24.0909091 C24.2400186,24.0909091 23.7472275,24.3851227 23.4613503,24.8306507 L23.4272066,24.9037545 C23.4135049,24.927802 23.398789,24.9508694 23.3831465,24.972933 C23.2653211,25.1970697 23.2,25.4543696 23.2,25.7272727 C23.2,26.6310114 23.9163444,27.3636364 24.8,27.3636364 C25.6836556,27.3636364 26.4,26.6310114 26.4,25.7272727 C26.4,24.823534 25.6836556,24.0909091 24.8,24.0909091 Z M15.2,18.3636364 C14.3163444,18.3636364 13.6,19.0962613 13.6,20 C13.6,20.9037387 14.3163444,21.6363636 15.2,21.6363636 C15.7836953,21.6363636 16.2943892,21.3167038 16.5738446,20.8392175 L16.5807934,20.8235182 C16.5836144,20.8185673 16.5864783,20.8136579 16.5893844,20.8087902 C16.7237928,20.5713319 16.8,20.2947678 16.8,20 C16.8,19.7023979 16.7223202,19.4233512 16.5865661,19.182911 C16.5793633,19.1739758 16.5776964,19.1710128 16.5760496,19.1680437 C16.2987558,18.6860361 15.7861915,18.3636364 15.2,18.3636364 Z M24.8,12.6363636 C23.9163444,12.6363636 23.2,13.3689886 23.2,14.2727273 C23.2,14.5683049 23.2766265,14.8455787 23.4106715,15.0849039 L23.4189496,15.0957949 C23.4215477,15.1003481 23.424098,15.1049163 23.4266005,15.1094991 C23.704155,15.5885191 24.2154726,15.9090909 24.8,15.9090909 C25.6836556,15.9090909 26.4,15.176466 26.4,14.2727273 C26.4,13.3689886 25.6836556,12.6363636 24.8,12.6363636 Z" id="Combined-Shape" fill="#FFFFFF" fill-rule="nonzero"></path>
                    <circle id="Oval-4" stroke="#FFFFFF" stroke-width="3" cx="20" cy="20" r="18.5"></circle>
                </g>
            </g>
        </g>
    </g>
</svg>