<svg xmlns="http://www.w3.org/2000/svg" width="16" height="23" viewBox="0 0 16 23">
    <g fill="none" fill-rule="evenodd">
        <g fill="#FFF">
            <path d="M338.893 41.862l2.212-2.668v11.508h1.78V39.194l2.246 2.668c.166.199.407.3.65.3.187 0 .374-.06.53-.185.358-.287.41-.805.118-1.157l-3.768-4.519c-.16-.19-.398-.301-.649-.301s-.489.11-.649.301l-3.767 4.519c-.294.352-.241.87.117 1.157.359.287.887.235 1.18-.115m8.883 1.86h-3.11v1.745h3.11c.241 0 .445.2.445.436V56.82c0 .236-.204.436-.445.436h-11.552c-.241 0-.445-.2-.445-.436V45.903c0-.235.204-.436.445-.436h3.11v-1.745h-3.11c-1.226 0-2.224.979-2.224 2.181V56.82c0 1.203.998 2.181 2.224 2.181h11.552c1.226 0 2.224-.978 2.224-2.181V45.903c0-1.202-.998-2.181-2.224-2.181" transform="translate(-334 -36)"/>
        </g>
    </g>
</svg>
