<svg xmlns="http://www.w3.org/2000/svg" xmlns:xlink="http://www.w3.org/1999/xlink" width="20" height="13" viewBox="0 0 20 13">
    <defs>
        <path id="nerpsrdj0a" d="M17 9c1.657 0 3 1.343 3 3v7c0 1.657-1.343 3-3 3H3c-1.657 0-3-1.343-3-3v-7c0-1.657 1.343-3 3-3h14zm0 2H3c-.552 0-1 .448-1 1v7c0 .552.448 1 1 1h14c.552 0 1-.448 1-1v-7c0-.552-.448-1-1-1z"/>
    </defs>
    <g fill="none" fill-rule="evenodd">
        <g>
            <g>
                <g>
                    <g>
                        <g transform="translate(-1075 -33) translate(106 21) translate(632 3) translate(337)">
                            <use fill="#FFF" xlink:href="#nerpsrdj0a"/>
                        </g>
                    </g>
                </g>
            </g>
        </g>
    </g>
</svg>
