<svg xmlns="http://www.w3.org/2000/svg" width="16" height="22" viewBox="0 0 16 22">
    <g fill="none" fill-rule="evenodd">
        <g fill="#FFF" fill-rule="nonzero">
            <path d="M306.204 38.52h-3.366v-.29c0-1.23-.999-2.23-2.226-2.23h-3.224c-1.227 0-2.226 1-2.226 2.23v.29h-3.366c-.44 0-.796.356-.796.797v2.662c0 .44.357.798.796.798h.023l1.146 14.488c.033.415.379.735.794.735h10.482c.415 0 .761-.32.794-.735l1.146-14.488h.023c.44 0 .796-.357.796-.798v-2.662c0-.44-.357-.798-.796-.798zm-9.45-.29c0-.35.285-.635.634-.635h3.224c.349 0 .633.285.633.635v.29h-4.49v-.29zm6.751 18.175h-.95l.338-7.574c.02-.44-.321-.813-.76-.832-.44-.02-.812.32-.831.761l-.34 7.644h-1.166v-7.608c0-.441-.356-.798-.796-.798-.44 0-.796.357-.796.798v7.608h-1.165l-.34-7.644c-.02-.44-.393-.78-.832-.761-.439.02-.78.392-.76.832l.337 7.574h-.95l-1.077-13.628h11.166l-1.078 13.628zm1.902-15.223h-12.814v-1.068h12.814v1.068z" transform="translate(-291 -36)"/>
        </g>
    </g>
</svg>
