<svg xmlns="http://www.w3.org/2000/svg" width="17" height="15" viewBox="0 0 17 15">
    <g fill="none" fill-rule="evenodd">
        <g fill="#686A83">
            <g>
                <g>
                    <path d="M17 169.326c-.625.285-1.297.477-2.003.563.72-.442 1.274-1.143 1.534-1.978-.675.41-1.42.707-2.216.867-.635-.695-1.542-1.13-2.546-1.13-1.924 0-3.486 1.603-3.486 3.578 0 .28.03.553.09.815-2.899-.15-5.468-1.572-7.19-3.74-.3.531-.472 1.146-.472 1.801 0 1.24.616 2.336 1.552 2.977-.57-.017-1.11-.18-1.58-.446v.044c0 1.734 1.202 3.18 2.798 3.508-.292.084-.6.126-.919.126-.224 0-.444-.022-.656-.064.444 1.42 1.731 2.455 3.258 2.483-1.194.96-2.698 1.532-4.332 1.532-.281 0-.56-.016-.832-.049 1.544 1.013 3.378 1.606 5.346 1.606 6.416 0 9.924-5.45 9.924-10.177 0-.156-.003-.312-.01-.464.682-.505 1.274-1.134 1.74-1.852" transform="translate(-1034 -1135) translate(0 943) translate(1034 25)"/>
                </g>
            </g>
        </g>
    </g>
</svg>
