<svg xmlns="http://www.w3.org/2000/svg" width="21" height="17" viewBox="0 0 21 17">
    <g fill="none" fill-rule="evenodd">
        <g fill="#FFF">
            <g>
                <g>
                    <g>
                        <path d="M30 13.973c-.735.335-1.526.561-2.356.662.848-.52 1.498-1.345 1.804-2.327-.793.482-1.67.832-2.607 1.02C26.094 12.51 25.027 12 23.846 12c-2.264 0-4.101 1.884-4.101 4.207 0 .33.035.65.105.959-3.41-.176-6.433-1.85-8.458-4.398-.353.624-.555 1.347-.555 2.118 0 1.459.724 2.747 1.825 3.501-.671-.02-1.305-.211-1.859-.524v.051c0 2.04 1.415 3.74 3.293 4.126-.344.098-.707.148-1.081.148-.265 0-.523-.025-.773-.075.523 1.671 2.037 2.888 3.833 2.92-1.404 1.13-3.174 1.803-5.096 1.803-.331 0-.659-.02-.979-.058 1.816 1.192 3.974 1.889 6.29 1.889 7.548 0 11.674-6.41 11.674-11.971 0-.183-.003-.366-.01-.545.802-.594 1.498-1.334 2.046-2.178" transform="translate(-477 -597) translate(285 295) translate(25 290) translate(157.5)"/>
                    </g>
                </g>
            </g>
        </g>
    </g>
</svg>
