<svg xmlns="http://www.w3.org/2000/svg" width="14" height="15" viewBox="0 0 14 15">
    <g fill="none" fill-opacity=".1" fill-rule="evenodd">
        <g fill="#BDBECB" fill-rule="nonzero">
            <g>
                <g>
                    <g>
                        <path d="M466.75 43c2.071 0 3.75 1.679 3.75 3.75v1.5c0 .414-.336.75-.75.75s-.75-.336-.75-.75v-1.5c0-1.243-1.007-2.25-2.25-2.25h-6c-1.243 0-2.25 1.007-2.25 2.25v1.5c0 .414-.336.75-.75.75s-.75-.336-.75-.75v-1.5c0-2.071 1.679-3.75 3.75-3.75zm-3-9c2.071 0 3.75 1.679 3.75 3.75 0 2.071-1.679 3.75-3.75 3.75-2.071 0-3.75-1.679-3.75-3.75 0-2.071 1.679-3.75 3.75-3.75zm0 1.5c-1.243 0-2.25 1.007-2.25 2.25s1.007 2.25 2.25 2.25 2.25-1.007 2.25-2.25-1.007-2.25-2.25-2.25z" transform="translate(-557 -303) translate(100 120) translate(0 149)"/>
                    </g>
                </g>
            </g>
        </g>
    </g>
</svg>
