<svg xmlns="http://www.w3.org/2000/svg" width="37" height="37" viewBox="0 0 37 37">
    <g fill="none" fill-rule="evenodd">
        <g>
            <g>
                <g transform="translate(-19 -893) translate(20 891) translate(0 3)">
                    <path fill="#FFF" fill-rule="nonzero" d="M21.05 19.2c2.347 0 4.25 1.903 4.25 4.25v1.7c0 .47-.38.85-.85.85s-.85-.38-.85-.85v-1.7c0-1.408-1.142-2.55-2.55-2.55h-6.8c-1.408 0-2.55 1.142-2.55 2.55v1.7c0 .47-.38.85-.85.85s-.85-.38-.85-.85v-1.7c0-2.347 1.903-4.25 4.25-4.25zM17.65 9c2.347 0 4.25 1.903 4.25 4.25s-1.903 4.25-4.25 4.25-4.25-1.903-4.25-4.25S15.303 9 17.65 9zm0 1.7c-1.408 0-2.55 1.142-2.55 2.55s1.142 2.55 2.55 2.55 2.55-1.142 2.55-2.55-1.142-2.55-2.55-2.55z" opacity=".499"/>
                    <circle cx="17.5" cy="17.5" r="17.5" stroke="#FFF" stroke-width="1.5" opacity=".25"/>
                </g>
            </g>
        </g>
    </g>
</svg>
