<svg xmlns="http://www.w3.org/2000/svg" width="18" height="15" viewBox="0 0 18 15">
    <g fill="none" fill-rule="evenodd">
        <g fill="#1AFFFC" fill-rule="nonzero">
            <g>
                <g>
                    <g>
                        <path d="M431 43c2.071 0 3.75 1.679 3.75 3.75v1.5c0 .414-.336.75-.75.75s-.75-.336-.75-.75v-1.5c0-1.243-1.007-2.25-2.25-2.25h-5.25c-1.243 0-2.25 1.007-2.25 2.25v1.5c0 .414-.336.75-.75.75s-.75-.336-.75-.75v-1.5c0-2.071 1.679-3.75 3.75-3.75zm7.72-4.28c.293-.293.767-.293 1.06 0 .293.293.293.767 0 1.06l-3 3c-.293.293-.767.293-1.06 0l-1.5-1.5c-.293-.293-.293-.767 0-1.06.293-.293.767-.293 1.06 0l.97.97zM428.375 34c2.071 0 3.75 1.679 3.75 3.75 0 2.071-1.679 3.75-3.75 3.75-2.071 0-3.75-1.679-3.75-3.75 0-2.071 1.679-3.75 3.75-3.75zm0 1.5c-1.243 0-2.25 1.007-2.25 2.25s1.007 2.25 2.25 2.25 2.25-1.007 2.25-2.25-1.007-2.25-2.25-2.25z" transform="translate(-522 -303) translate(100 120) translate(0 149)"/>
                    </g>
                </g>
            </g>
        </g>
    </g>
</svg>
