<svg xmlns="http://www.w3.org/2000/svg" width="1402" height="716" viewBox="0 0 1402 716">
    <g fill="none" fill-rule="evenodd" stroke-linecap="square">
        <g stroke="#1AFFFC" stroke-width=".1">
            <g>
                <g>
                    <g>
                        <path d="M1 0L1 716M21 0L21 716M41 0L41 716M61 0L61 716M81 0L81 716M101 0L101 716M121 0L121 716M141 0L141 716M161 0L161 716M181 0L181 716M201 0L201 716M221 0L221 716M241 0L241 716M261 0L261 716M281 0L281 716M301 0L301 716M321 0L321 716M341 0L341 716M361 0L361 716M381 0L381 716M401 0L401 716M421 0L421 716M441 0L441 716M461 0L461 716M481 0L481 716M501 0L501 716M521 0L521 716M541 0L541 716M561 0L561 716M581 0L581 716M601 0L601 716M621 0L621 716M641 0L641 716M661 0L661 716M681 0L681 716M701 0L701 716M721 0L721 716M741 0L741 716M761 0L761 716M781 0L781 716M801 0L801 716M821 0L821 716M841 0L841 716M861 0L861 716M881 0L881 716M901 0L901 716M921 0L921 716M941 0L941 716M961 0L961 716M981 0L981 716M1001 0L1001 716M1021 0L1021 716M1041 0L1041 716M1061 0L1061 716M1081 0L1081 716M1101 0L1101 716M1121 0L1121 716M1141 0L1141 716M1161 0L1161 716M1181 0L1181 716M1201 0L1201 716M1221 0L1221 716M1241 0L1241 716M1261 0L1261 716M1281 0L1281 716M1301 0L1301 716M1321 0L1321 716M1341 0L1341 716M1361 0L1361 716M1381 0L1381 716M1401 0L1401 716" transform="translate(-20 -210) translate(20 210)"/>
                    </g>
                </g>
            </g>
        </g>
    </g>
</svg>
