<?xml version="1.0" encoding="UTF-8"?>
<svg width="10px" height="19px" viewBox="0 0 10 19" version="1.1" xmlns="http://www.w3.org/2000/svg" xmlns:xlink="http://www.w3.org/1999/xlink">
    <title>iphone copy 3@2x</title>
    <g id="iPhone8" stroke="none" stroke-width="1" fill="none" fill-rule="evenodd">
        <g id="Splash-new" transform="translate(-104.000000, -376.000000)" fill="#F4E200" fill-rule="nonzero">
            <g id="icons" transform="translate(18.000000, 26.000000)">
                <g id="iphone-copy-3" transform="translate(86.000000, 350.000000)">
                    <path d="M11.375,0 L1.625,0 C0.7271875,0 0,0.703214286 0,1.57142857 L0,20.4285714 C0,21.2967857 0.7271875,22 1.625,22 L11.375,22 C12.2728125,22 13,21.2967857 13,20.4285714 L13,1.57142857 C13,0.703214286 12.2728125,0 11.375,0 Z M6.5,20.4285714 C6.0515,20.4285714 5.6875,20.0765714 5.6875,19.6428571 C5.6875,19.2091429 6.0515,18.8571429 6.5,18.8571429 C6.9485,18.8571429 7.3125,19.2091429 7.3125,19.6428571 C7.3125,20.0765714 6.9485,20.4285714 6.5,20.4285714 Z M11.375,18.0714286 L1.625,18.0714286 L1.625,2.35714286 L11.375,2.35714286 L11.375,18.0714286 Z" id="Shape"></path>
                </g>
            </g>
        </g>
    </g>
</svg>