<?xml version="1.0" encoding="UTF-8"?>
<svg width="14px" height="14px" viewBox="0 0 14 14" version="1.1" xmlns="http://www.w3.org/2000/svg" xmlns:xlink="http://www.w3.org/1999/xlink">
    <title>jitter@2x</title>
    <defs>
        <path d="M12.75,15.2884341 L9.34036123,4.87009341 C9.13522956,4.2433022 8.26477044,4.2433022 8.05963877,4.87009341 L6.18848753,10.5875 L3.975,10.5875 C3.60220779,10.5875 3.3,10.8953042 3.3,11.275 C3.3,11.6546958 3.60220779,11.9625 3.975,11.9625 L6.675,11.9625 C6.96554053,11.9625 7.22348424,11.7731418 7.31536123,11.4924066 L8.7,7.26156589 L12.1096388,17.6799066 C12.3147704,18.3066978 13.1852296,18.3066978 13.3903612,17.6799066 L15.2615125,11.9625 L17.475,11.9625 C17.8477922,11.9625 18.15,11.6546958 18.15,11.275 C18.15,10.8953042 17.8477922,10.5875 17.475,10.5875 L14.775,10.5875 C14.4844595,10.5875 14.2265158,10.7768582 14.1346388,11.0575934 L12.75,15.2884341 Z" id="path-1"></path>
    </defs>
    <g id="iPhone8" stroke="none" stroke-width="1" fill="none" fill-rule="evenodd">
        <g id="Splash-new" transform="translate(-108.000000, -411.000000)">
            <g id="icons-copy" transform="translate(17.000000, 12.000000)">
                <g id="jitter" transform="translate(91.000000, 399.000000)">
                    <circle id="Oval-4" stroke="#1AFFFC" stroke-width="1.65" cx="11" cy="11" r="10.175"></circle>
                    <mask id="mask-2" fill="white">
                        <use xlink:href="#path-1"></use>
                    </mask>
                    <use id="Shape" fill="#1AFFFC" fill-rule="nonzero" xlink:href="#path-1"></use>
                </g>
            </g>
        </g>
    </g>
</svg>