<?xml version="1.0" encoding="UTF-8"?>
<svg width="18px" height="16px" viewBox="0 0 18 16" version="1.1" xmlns="http://www.w3.org/2000/svg" xmlns:xlink="http://www.w3.org/1999/xlink">
    <title>mac copy@2x</title>
    <g id="iPhone8" stroke="none" stroke-width="1" fill="none" fill-rule="evenodd">
        <g id="Splash-new" transform="translate(-61.000000, -116.000000)" fill="#FA6A00">
            <g id="icons-copy" transform="translate(17.000000, 12.000000)">
                <g id="mac-copy" transform="translate(44.000000, 104.000000)">
                    <path d="M22,19 L2,19 C0.897,19 0,18.103 0,17 L0,2 C0,0.897 0.897,0 2,0 L22,0 C23.103,0 24,0.897 24,2 L24,17 C24,18.103 23.103,19 22,19 Z M2,1 C1.4485,1 1,1.4485 1,2 L1,17 C1,17.5515 1.4485,18 2,18 L22,18 C22.5515,18 23,17.5515 23,17 L23,2 C23,1.4485 22.5515,1 22,1 L2,1 Z" id="Shape" fill-rule="nonzero"></path>
                    <path d="M19,22 L5,22 C4.724,22 4.5,21.776 4.5,21.5 C4.5,21.224 4.724,21 5,21 L19,21 C19.276,21 19.5,21.224 19.5,21.5 C19.5,21.776 19.276,22 19,22 Z" id="Path"></path>
                    <path d="M15.51,22 C15.5065,22 15.5035,22 15.5,22 L8.5,22 C8.3395,22 8.1885,21.923 8.0945,21.792 C8.0005,21.6615 7.975,21.494 8.0255,21.3415 L9.0255,18.3415 C9.094,18.1375 9.2845,18 9.5,18 L14.5,18 C14.7155,18 14.906,18.1375 14.9745,18.342 L15.9445,21.2525 C15.986,21.3255 16.01,21.41 16.01,21.5 C16.01,21.776 15.786,22 15.51,22 Z M9.1935,21 L14.8065,21 L14.14,19 L9.8605,19 L9.1935,21 Z" id="Shape" fill-rule="nonzero"></path>
                    <path d="M22,15 L2,15 L2,2 L22,2 L22,15 Z M3,14 L21,14 L21,3 L3,3 L3,14 Z" id="Shape" fill-rule="nonzero"></path>
                    <circle id="Oval" cx="12" cy="16.5" r="1"></circle>
                </g>
            </g>
        </g>
    </g>
</svg>