<?xml version="1.0" encoding="UTF-8"?>
<svg width="30px" height="30px" viewBox="0 0 30 30" version="1.1" xmlns="http://www.w3.org/2000/svg" xmlns:xlink="http://www.w3.org/1999/xlink">
    <title>ping-icn@2x</title>
    <g id="Website" stroke="none" stroke-width="1" fill="none" fill-rule="evenodd">
        <g id="#2.On-Speedtest" transform="translate(-286.000000, -205.000000)">
            <g id="Content" transform="translate(106.000000, 95.000000)">
                <g id="speedtest" transform="translate(180.000000, 110.000000)">
                    <g id="down-up">
                        <g id="ping">
                            <g id="ping-icn">
                                <circle id="Oval-4" stroke="#BDBECB" stroke-width="3" cx="20" cy="20" r="18.5"></circle>
                                <path d="M14.2928932,13.2928932 C14.6834175,12.9023689 15.3165825,12.9023689 15.7071068,13.2928932 C16.0976311,13.6834175 16.0976311,14.3165825 15.7071068,14.7071068 L15.7071068,14.7071068 L11.414,19 L25,19 C25.5128358,19 25.9355072,19.3860402 25.9932723,19.8833789 L26,20 C26,20.5522847 25.5522847,21 25,21 L25,21 L11.414,21 L15.7071068,25.2928932 C16.0675907,25.6533772 16.0953203,26.2206082 15.7902954,26.6128994 L15.7071068,26.7071068 C15.3165825,27.0976311 14.6834175,27.0976311 14.2928932,26.7071068 L14.2928932,26.7071068 L8.29289322,20.7071068 L8.29289322,20.7071068 L8.21968877,20.625449 C8.2173721,20.6225624 8.21507113,20.6196628 8.21278596,20.6167501 C8.20728448,20.6098424 8.20175344,20.602603 8.19633458,20.5953066 C8.17849009,20.5711307 8.1617187,20.546275 8.14606743,20.5206602 C8.13860692,20.5086131 8.13149883,20.4963944 8.12467117,20.4840621 C8.11379392,20.4642939 8.10337664,20.4438914 8.09365378,20.4230991 C8.08567905,20.4060985 8.07819642,20.3887956 8.07122549,20.371336 C8.06331574,20.3515792 8.05612249,20.3317977 8.04954668,20.3117364 C8.04472872,20.2968513 8.04009773,20.2814633 8.03584514,20.265993 C8.02983363,20.2444365 8.0246398,20.2227461 8.02016515,20.2007941 C8.01670217,20.1833753 8.01362808,20.165949 8.0110178,20.1484669 C8.00376119,20.1003621 8,20.0506203 8,20 L8.00396641,20.0892501 C8.00189498,20.0659949 8.00063489,20.042681 8.00018615,20.0193545 L8,20 C8,19.9935938 8.00006024,19.9872016 8.00018018,19.980824 C8.00059932,19.9579802 8.0018656,19.9343349 8.00396641,19.9107499 C8.00576612,19.890153 8.00811223,19.8705042 8.01101934,19.8510388 C8.01362808,19.834051 8.01670217,19.8166247 8.02024007,19.7992742 C8.0246398,19.7772539 8.02983363,19.7555635 8.03572097,19.7341604 C8.04009773,19.7185367 8.04472872,19.7031487 8.04973809,19.6878575 C8.05612249,19.6682023 8.06331574,19.6484208 8.07110396,19.6289415 C8.07819642,19.6112044 8.08567905,19.5939015 8.09367336,19.5767785 C8.10337664,19.5561086 8.11379392,19.5357061 8.12487577,19.515723 C8.13149883,19.5036056 8.13860692,19.4913869 8.14599545,19.4792912 C8.1617187,19.453725 8.17849009,19.4288693 8.19631351,19.4048407 C8.22531295,19.3656744 8.25749917,19.3282873 8.29289322,19.2928932 L8.21278596,19.3832499 C8.23766884,19.3515341 8.26442691,19.3213595 8.29289322,19.2928932 Z" id="Combined-Shape" fill="#BDBECB" fill-rule="nonzero"></path>
                                <path d="M20.2928932,13.2928932 C20.6834175,12.9023689 21.3165825,12.9023689 21.7071068,13.2928932 C22.0976311,13.6834175 22.0976311,14.3165825 21.7071068,14.7071068 L21.7071068,14.7071068 L17.414,19 L31,19 C31.5128358,19 31.9355072,19.3860402 31.9932723,19.8833789 L32,20 C32,20.5522847 31.5522847,21 31,21 L31,21 L17.414,21 L21.7071068,25.2928932 C22.0675907,25.6533772 22.0953203,26.2206082 21.7902954,26.6128994 L21.7071068,26.7071068 C21.3165825,27.0976311 20.6834175,27.0976311 20.2928932,26.7071068 L20.2928932,26.7071068 L14.2928932,20.7071068 L14.2928932,20.7071068 L14.2196888,20.625449 C14.2173721,20.6225624 14.2150711,20.6196628 14.212786,20.6167501 C14.2072845,20.6098424 14.2017534,20.602603 14.1963346,20.5953066 C14.1784901,20.5711307 14.1617187,20.546275 14.1460674,20.5206602 C14.1386069,20.5086131 14.1314988,20.4963944 14.1246712,20.4840621 C14.1137939,20.4642939 14.1033766,20.4438914 14.0936538,20.4230991 C14.085679,20.4060985 14.0781964,20.3887956 14.0712255,20.371336 C14.0633157,20.3515792 14.0561225,20.3317977 14.0495467,20.3117364 C14.0447287,20.2968513 14.0400977,20.2814633 14.0358451,20.265993 C14.0298336,20.2444365 14.0246398,20.2227461 14.0201652,20.2007941 C14.0167022,20.1833753 14.0136281,20.165949 14.0110178,20.1484669 C14.0037612,20.1003621 14,20.0506203 14,20 L14.0039664,20.0892501 C14.001895,20.0659949 14.0006349,20.042681 14.0001861,20.0193545 L14,20 C14,19.9935938 14.0000602,19.9872016 14.0001802,19.980824 C14.0005993,19.9579802 14.0018656,19.9343349 14.0039664,19.9107499 C14.0057661,19.890153 14.0081122,19.8705042 14.0110193,19.8510388 C14.0136281,19.834051 14.0167022,19.8166247 14.0202401,19.7992742 C14.0246398,19.7772539 14.0298336,19.7555635 14.035721,19.7341604 C14.0400977,19.7185367 14.0447287,19.7031487 14.0497381,19.6878575 C14.0561225,19.6682023 14.0633157,19.6484208 14.071104,19.6289415 C14.0781964,19.6112044 14.085679,19.5939015 14.0936734,19.5767785 C14.1033766,19.5561086 14.1137939,19.5357061 14.1248758,19.515723 C14.1314988,19.5036056 14.1386069,19.4913869 14.1459955,19.4792912 C14.1617187,19.453725 14.1784901,19.4288693 14.1963135,19.4048407 C14.225313,19.3656744 14.2574992,19.3282873 14.2928932,19.2928932 L14.212786,19.3832499 C14.2376688,19.3515341 14.2644269,19.3213595 14.2928932,19.2928932 Z" id="Combined-Shape-Copy" fill="#BDBECB" fill-rule="nonzero" transform="translate(23.000000, 20.000000) scale(-1, 1) translate(-23.000000, -20.000000) "></path>
                            </g>
                        </g>
                    </g>
                </g>
            </g>
        </g>
    </g>
</svg>