<?xml version="1.0" encoding="UTF-8"?>
<svg width="31px" height="30px" viewBox="0 0 31 30" version="1.1" xmlns="http://www.w3.org/2000/svg" xmlns:xlink="http://www.w3.org/1999/xlink">
    <title>up-icn@2x</title>
    <g id="Website" stroke="none" stroke-width="1" fill="none" fill-rule="evenodd">
        <g id="#2.On-Speedtest" transform="translate(-857.000000, -205.000000)">
            <g id="Content" transform="translate(106.000000, 95.000000)">
                <g id="speedtest" transform="translate(180.000000, 110.000000)">
                    <g id="down-up">
                        <g id="upload" transform="translate(571.000000, 0.000000)">
                            <g id="up-icn">
                                <path d="M19.2088745,12.0699764 L19.2088745,28.1683221 C19.2088745,28.7240015 19.7474464,29.1744687 20.4118084,29.1744687 C21.0761705,29.1744687 21.6147423,28.7240015 21.6147423,28.1683221 L21.6147423,12.0699764 C21.6147423,11.514297 21.0761705,11.0638298 20.4118084,11.0638298 C19.7474464,11.0638298 19.2088745,11.514297 19.2088745,12.0699764 Z M14.0448078,19.9623805 C13.5750328,19.4955978 12.8133772,19.4955978 12.3436023,19.9623805 C11.8738274,20.4291632 11.8738274,21.1859675 12.3436023,21.6527502 L19.5612057,28.8243816 C20.0309806,29.2911644 20.7926362,29.2911644 21.2624112,28.8243816 L28.4800146,21.6527502 C28.9497895,21.1859675 28.9497895,20.4291632 28.4800146,19.9623805 C28.0102396,19.4955978 27.248584,19.4955978 26.7788091,19.9623805 L20.4118084,26.288827 L14.0448078,19.9623805 Z" id="Combined-Shape" fill="#BF71FF" fill-rule="nonzero" transform="translate(20.411808, 20.119149) scale(1, -1) translate(-20.411808, -20.119149) "></path>
                                <ellipse id="Oval-4" stroke="#BF71FF" stroke-width="3" cx="20.1282051" cy="20" rx="18.6282051" ry="18.5"></ellipse>
                            </g>
                        </g>
                    </g>
                </g>
            </g>
        </g>
    </g>
</svg>