<?xml version="1.0" encoding="UTF-8"?>
<svg width="18px" height="18px" viewBox="0 0 18 18" version="1.1" xmlns="http://www.w3.org/2000/svg" xmlns:xlink="http://www.w3.org/1999/xlink">
    <title>rocket_icon@2x</title>
    <g id="iPhone8" stroke="none" stroke-width="1" fill="none" fill-rule="evenodd">
        <g id="On-Speedtest" transform="translate(-261.000000, -352.000000)" fill="#FF4900" fill-rule="nonzero">
            <g id="gauge" transform="translate(0.000000, 121.000000)">
                <path d="M264.435244,246.996951 C263.678484,246.996951 263.039832,247.497813 262.829864,248.186771 L262.103725,250.588282 C262.094976,250.616715 262.088415,250.65171 262.088415,250.686705 C262.088415,250.872614 262.237142,251.021341 262.423051,251.021341 C262.455859,251.021341 262.488666,251.01478 262.521474,251.006031 L264.922982,250.275517 C265.611939,250.067736 266.112805,249.426896 266.112805,248.670135 C266.114987,247.74715 265.362602,246.996951 264.435244,246.996951 Z M280.762867,231.402439 C277.366952,231.402439 274.088067,231.550289 271.332736,233.345022 C269.879104,234.291671 268.67185,235.618213 267.698655,237.098764 C265.341636,237.242507 263.146815,238.437627 261.760937,240.380209 C261.572047,240.643053 261.533037,240.99009 261.656227,241.289896 C261.779416,241.591757 262.050432,241.807371 262.370724,241.858708 C263.218676,242.00245 264.15902,242.382342 265.107576,242.94294 C264.937165,243.571301 264.79755,244.181182 264.696946,244.7541 C264.643564,245.05596 264.742115,245.368088 264.959749,245.583702 L267.522084,248.144379 C267.700708,248.325084 267.940927,248.421597 268.189359,248.421597 C268.242741,248.421597 268.296123,248.41749 268.351558,248.40517 C268.922334,248.306603 269.534174,248.16902 270.162439,247.996529 C270.722949,248.947286 271.104836,249.887775 271.246503,250.735858 C271.301939,251.058253 271.51752,251.327257 271.81728,251.452519 C271.93431,251.501802 272.057499,251.52439 272.180688,251.52439 C272.373684,251.52439 272.564628,251.462786 272.72888,251.349845 C274.671162,249.965807 275.866097,247.768594 276.007765,245.41121 C277.488088,244.437866 278.814425,243.230425 279.758875,241.776569 C281.555384,239.022866 281.707317,235.607945 281.707317,232.347035 C281.707317,231.825454 281.284368,231.402439 280.762867,231.402439 Z M263.094512,240.804842 C264.195038,239.634802 265.597188,238.821106 267.118902,238.445122 C266.542825,239.606744 266.059137,240.796424 265.65697,241.966463 C264.795571,241.472634 263.934172,241.077009 263.094512,240.804842 Z M272.303033,250.015244 C272.030648,249.17615 271.634708,248.318048 271.143293,247.454515 C272.317073,247.052619 273.502086,246.566542 274.664634,245.990854 C274.28835,247.514256 273.471197,248.915461 272.303033,250.015244 Z M278.451234,240.883771 C276.354909,244.102969 271.837045,246.232254 268.099259,246.996951 L266.112805,245.010497 C266.875304,241.272711 269.006787,236.754847 272.225986,234.658522 C274.456352,233.206038 277.249253,232.948941 280.198171,232.911585 C280.160815,235.860503 279.903718,238.653405 278.451234,240.883771 Z M275.165715,239.45122 C275.999976,239.45122 276.676829,238.775894 276.676829,237.941089 C276.676829,237.108253 276.001944,236.432927 275.165715,236.432927 C274.333422,236.432927 273.658537,237.108253 273.658537,237.941089 C273.658537,238.775894 274.333422,239.45122 275.165715,239.45122 Z" id="rocket_icon"></path>
            </g>
        </g>
    </g>
</svg>