<?xml version="1.0" encoding="UTF-8"?>
<svg width="18px" height="17px" viewBox="0 0 18 17" version="1.1" xmlns="http://www.w3.org/2000/svg" xmlns:xlink="http://www.w3.org/1999/xlink">
    <title>Shape Copy 6@2x</title>
    <g id="iPhone8" stroke="none" stroke-width="1" fill="none" fill-rule="evenodd">
        <g id="Splash-new" transform="translate(-284.000000, -496.000000)" fill="#F3F600" fill-rule="nonzero">
            <g id="icons-copy" transform="translate(17.000000, 12.000000)">
                <path d="M277.500416,484.647308 L275.422082,491.615385 L267.845263,491.615385 C267.482414,491.615968 267.160286,491.847607 267.044394,492.191281 C266.928502,492.534956 267.044622,492.914232 267.333087,493.134231 L273.474967,497.915 L271.3924,504.815385 C271.3066,505.0918 271.356872,505.392499 271.527924,505.626015 C271.698976,505.859531 271.970586,505.998259 272.260136,506 C272.455,505.99912 272.644067,505.933649 272.797709,505.813846 L278.346988,501.608462 L283.892034,505.813846 C284.04583,505.933365 284.234797,505.998802 284.429607,506 C284.719488,505.996871 284.990879,505.857144 285.161735,505.623061 C285.332592,505.388979 285.38286,505.088015 285.297343,504.811154 L283.214776,497.915 L289.356656,493.134231 C289.641523,492.913283 289.755108,492.536233 289.639654,492.194808 C289.524199,491.853383 289.205045,491.622522 288.84448,491.619615 L281.284592,491.619615 L279.210491,484.651538 C279.103379,484.27184 278.758597,484.008212 278.363919,484.004231 C277.952311,484.003981 277.607528,484.26761 277.500416,484.647308 Z" id="Shape-Copy-6"></path>
            </g>
        </g>
    </g>
</svg>