<svg xmlns="http://www.w3.org/2000/svg" width="137" height="41" viewBox="0 0 137 41">
    <g fill="none" fill-rule="evenodd">
        <g>
            <g>
                <g>
                    <g>
                        <g stroke-linejoin="square" transform="translate(-1034 -968) translate(0 943) translate(1034 25)">
                            <rect width="135.148" height="40.055" x=".472" y=".472" fill="#000" stroke="#A6A6A6" stroke-width=".945" rx="3.779"/>
                            <rect width="135.593" height="40.5" x=".25" y=".25" stroke="#8F8F8F" stroke-width=".5" rx="3.779"/>
                        </g>
                        <path fill="#FFF" d="M52.237 31.487h2.288l-5.007-14.075H47.2l-5.007 14.075h2.21l1.279-3.736h5.286l1.268 3.736zm-3.988-11.52h.163l2.009 5.95h-4.19l2.018-5.95zm12.34.722c-1.422 0-2.652.722-3.286 1.932h-.154v-1.756h-1.99V34.93h2.067v-5.053h.163c.548 1.122 1.73 1.785 3.22 1.785 2.643 0 4.325-2.117 4.325-5.492s-1.682-5.482-4.344-5.482zm-.586 9.091c-1.73 0-2.815-1.385-2.815-3.6 0-2.223 1.086-3.608 2.825-3.608 1.75 0 2.797 1.356 2.797 3.6 0 2.252-1.048 3.608-2.807 3.608zm11.303-9.09c-1.422 0-2.652.721-3.287 1.93h-.153v-1.755h-1.99V34.93h2.067v-5.053h.163c.548 1.122 1.73 1.785 3.22 1.785 2.642 0 4.324-2.117 4.324-5.492s-1.682-5.482-4.344-5.482zm-.586 9.09c-1.73 0-2.816-1.385-2.816-3.6 0-2.223 1.086-3.608 2.826-3.608 1.749 0 2.796 1.356 2.796 3.6 0 2.252-1.047 3.608-2.806 3.608zm9.304-2.077c.154 2.516 2.22 4.126 5.296 4.126 3.287 0 5.344-1.688 5.344-4.38 0-2.117-1.173-3.287-4.018-3.96l-1.528-.38c-1.807-.43-2.537-1.005-2.537-2.01 0-1.268 1.134-2.097 2.835-2.097 1.615 0 2.73.81 2.931 2.107h2.095c-.124-2.37-2.181-4.039-4.997-4.039-3.027 0-5.046 1.668-5.046 4.175 0 2.068 1.144 3.297 3.652 3.892l1.788.44c1.836.438 2.643 1.082 2.643 2.155 0 1.248-1.269 2.156-2.999 2.156-1.855 0-3.142-.85-3.325-2.185h-2.134zm12.418-9.413v2.624h-1.72v1.765h1.72v5.999c0 2.048.913 2.868 3.21 2.868.404 0 .779-.049 1.105-.108v-1.746c-.288.03-.451.05-.769.05-1.028 0-1.48-.488-1.48-1.6v-5.463h2.345v-1.765h-2.345V18.29h-2.066zm9.535 11.539c-1.798 0-2.807-1.336-2.807-3.658 0-2.302 1.01-3.648 2.807-3.648 1.787 0 2.806 1.346 2.806 3.648 0 2.312-1.019 3.658-2.806 3.658zm0 1.863c3.056 0 4.93-2.078 4.93-5.52 0-3.425-1.884-5.512-4.93-5.512-3.057 0-4.94 2.087-4.94 5.511 0 3.443 1.874 5.521 4.94 5.521zm5.872-.205h2.067v-6.272c0-1.492 1.105-2.497 2.662-2.497.346 0 .98.068 1.144.127v-2.068c-.222-.059-.616-.088-.914-.088-1.364 0-2.518.761-2.815 1.805h-.154v-1.63h-1.99v10.623zm10.525-9.042c1.528 0 2.527 1.083 2.575 2.75h-5.286c.116-1.658 1.183-2.75 2.71-2.75zm2.566 6.174c-.385.83-1.24 1.288-2.49 1.288-1.652 0-2.72-1.18-2.787-3.043v-.117h7.391v-.732c0-3.336-1.759-5.355-4.67-5.355-2.951 0-4.825 2.156-4.825 5.55 0 3.395 1.835 5.482 4.834 5.482 2.393 0 4.065-1.17 4.536-3.073h-1.99zM44.13 6.425v6.703h2.385c1.968 0 3.107-1.231 3.107-3.373 0-2.108-1.148-3.33-3.107-3.33h-2.384zm1.026.948H46.4c1.368 0 2.178.882 2.178 2.396 0 1.538-.796 2.411-2.178 2.411h-1.245V7.373zm8.074 4.965c-.856 0-1.337-.636-1.337-1.742 0-1.096.48-1.737 1.337-1.737.85 0 1.336.64 1.336 1.737 0 1.101-.485 1.742-1.336 1.742zm0 .887c1.455 0 2.347-.99 2.347-2.629 0-1.63-.897-2.624-2.347-2.624-1.456 0-2.353.994-2.353 2.624 0 1.64.893 2.63 2.353 2.63zM63.29 8.07h-.984l-.888 3.86h-.078l-1.025-3.86h-.943l-1.025 3.86h-.073l-.892-3.86h-.998l1.373 5.059h1.011l1.025-3.726h.078l1.03 3.726h1.02l1.369-5.059zm1.25 5.059h.984v-2.96c0-.789.485-1.281 1.277-1.281.732 0 1.09.404 1.09 1.217v3.024h.983V9.853c0-1.203-.627-1.881-1.739-1.881-.75 0-1.332.339-1.574.9h-.073V8.07h-.948v5.059zm5.996 0h.984V6.095h-.984v7.033zm4.798-.79c-.856 0-1.337-.636-1.337-1.742 0-1.096.48-1.737 1.337-1.737.85 0 1.336.64 1.336 1.737 0 1.101-.485 1.742-1.336 1.742zm0 .887c1.455 0 2.347-.99 2.347-2.629 0-1.63-.897-2.624-2.347-2.624-1.456 0-2.353.994-2.353 2.624 0 1.64.893 2.63 2.353 2.63zm5.392-.855c-.536 0-.925-.264-.925-.72 0-.445.311-.682.998-.729l1.217-.079v.423c0 .627-.549 1.105-1.29 1.105zm-.252.841c.654 0 1.199-.288 1.496-.794h.078v.71h.948V9.673c0-1.069-.705-1.7-1.955-1.7-1.13 0-1.935.557-2.036 1.426h.952c.11-.358.49-.562 1.039-.562.672 0 1.02.302 1.02.836v.436l-1.35.08c-1.185.074-1.853.599-1.853 1.509 0 .924.7 1.514 1.66 1.514zm5.978 0c.686 0 1.267-.33 1.565-.882h.078v.799h.943V6.095h-.984v2.778h-.074c-.27-.558-.846-.887-1.528-.887-1.259 0-2.069 1.012-2.069 2.61 0 1.603.801 2.615 2.069 2.615zm.279-4.329c.824 0 1.34.664 1.34 1.719 0 1.059-.512 1.714-1.34 1.714-.833 0-1.332-.646-1.332-1.719 0-1.064.504-1.714 1.332-1.714zm8.917 3.456c-.856 0-1.336-.636-1.336-1.742 0-1.096.48-1.737 1.336-1.737.851 0 1.336.64 1.336 1.737 0 1.101-.485 1.742-1.336 1.742zm0 .887c1.455 0 2.348-.99 2.348-2.629 0-1.63-.897-2.624-2.348-2.624-1.455 0-2.352.994-2.352 2.624 0 1.64.892 2.63 2.352 2.63zm3.763-.097h.984v-2.96c0-.789.485-1.281 1.277-1.281.732 0 1.089.404 1.089 1.217v3.024h.984V9.853c0-1.203-.627-1.881-1.74-1.881-.75 0-1.331.339-1.574.9h-.073V8.07h-.947v5.059zm9.095-6.285v1.25h-.819v.84h.82v2.857c0 .975.434 1.365 1.528 1.365.192 0 .37-.023.526-.05v-.832c-.137.014-.215.023-.366.023-.49 0-.705-.232-.705-.762v-2.6h1.117v-.841h-1.117v-1.25h-.984zm3.502 6.285h.984v-2.955c0-.766.499-1.282 1.304-1.282.742 0 1.113.41 1.113 1.217v3.02h.983V9.862c0-1.203-.64-1.886-1.761-1.886-.751 0-1.328.34-1.57.906h-.078V6.095h-.975v7.033zm8.051-4.306c.728 0 1.204.515 1.227 1.31h-2.517c.055-.79.563-1.31 1.29-1.31zm1.222 2.94c-.183.395-.59.613-1.185.613-.787 0-1.295-.562-1.327-1.45v-.055h3.519v-.348c0-1.589-.838-2.55-2.224-2.55-1.405 0-2.298 1.026-2.298 2.643 0 1.616.874 2.61 2.302 2.61 1.14 0 1.936-.557 2.16-1.463h-.947z" transform="translate(-1034 -968) translate(0 943) translate(1034 25)"/>
                        <g fill="#FFF">
                            <path d="M18.121 14.322c-.03-3.402 2.745-5.058 2.872-5.135-1.571-2.325-4.007-2.643-4.863-2.668C14.084 6.3 12.1 7.76 11.057 7.76c-1.063 0-2.668-1.221-4.397-1.185-2.226.035-4.308 1.342-5.45 3.373-2.357 4.142-.6 10.227 1.658 13.575 1.13 1.64 2.45 3.47 4.177 3.405 1.69-.07 2.322-1.093 4.362-1.093 2.02 0 2.613 1.093 4.375 1.05 1.814-.026 2.956-1.645 4.046-3.3 1.305-1.877 1.83-3.73 1.85-3.825-.041-.013-3.521-1.361-3.557-5.44M14.793 4.317c.91-1.154 1.531-2.724 1.358-4.317-1.315.06-2.96.924-3.908 2.052-.838.995-1.587 2.625-1.394 4.157 1.478.112 2.996-.756 3.944-1.892" transform="translate(-1034 -968) translate(0 943) translate(1034 25) translate(12.185 6.374)"/>
                        </g>
                    </g>
                </g>
            </g>
        </g>
    </g>
</svg>
