<svg xmlns="http://www.w3.org/2000/svg" width="17" height="15" viewBox="0 0 17 15">
    <g fill="none" fill-rule="evenodd">
        <g fill="#1AFFFC" fill-rule="nonzero">
            <g>
                <g>
                    <g>
                        <path d="M10.818 249c.427 0 .773.336.773.75s-.346.75-.773.75h-8.5c-.427 0-.773.336-.773.75v10.5c0 .414.346.75.773.75h10.818c.427 0 .773-.336.773-.75v-5.25c0-.414.346-.75.773-.75.427 0 .773.336.773.75v5.25c0 1.243-1.038 2.25-2.319 2.25H2.318C1.038 264 0 262.993 0 261.75v-10.5c0-1.243 1.038-2.25 2.318-2.25zm4.863.22c.302-.293.79-.293 1.093 0 .301.293.301.767 0 1.06l-8.5 8.25c-.302.293-.791.293-1.093 0l-2.318-2.25c-.302-.293-.302-.767 0-1.06.301-.293.79-.293 1.092 0l1.772 1.72z" transform="translate(-100 -414) translate(100 120) translate(0 45)"/>
                    </g>
                </g>
            </g>
        </g>
    </g>
</svg>
