<svg xmlns="http://www.w3.org/2000/svg" width="18" height="18" viewBox="0 0 18 18">
    <g fill="none" fill-rule="evenodd">
        <g>
            <g>
                <g transform="translate(-161 -206) translate(18 206) translate(143)">
                    <path fill="#1AFFFC" fill-rule="nonzero" d="M8.643 5.427v7.15c0 .246.245.446.547.446.302 0 .547-.2.547-.447v-7.15c0-.246-.245-.446-.547-.446-.302 0-.547.2-.547.447zM6.294 8.932c-.214-.207-.56-.207-.774 0-.213.207-.213.543 0 .75l3.283 3.186c.214.207.56.207.774 0l3.283-3.185c.213-.208.213-.544 0-.751-.214-.207-.56-.207-.774 0l-2.896 2.81-2.896-2.81z"/>
                    <circle cx="9" cy="9" r="8.325" stroke="#1AFFFC" stroke-width="1.35"/>
                </g>
            </g>
        </g>
    </g>
</svg>
