<svg xmlns="http://www.w3.org/2000/svg" width="16" height="4" viewBox="0 0 16 4">
    <g fill="none" fill-rule="evenodd">
        <g fill="#FFF">
            <g>
                <g>
                    <g>
                        <g>
                            <g>
                                <path d="M5.5 9.167c1.013 0 1.833.82 1.833 1.833s-.82 1.833-1.833 1.833-1.833-.82-1.833-1.833.82-1.833 1.833-1.833zm5.5 0c1.013 0 1.833.82 1.833 1.833s-.82 1.833-1.833 1.833-1.833-.82-1.833-1.833.82-1.833 1.833-1.833zm5.5 0c1.013 0 1.833.82 1.833 1.833s-.82 1.833-1.833 1.833-1.833-.82-1.833-1.833.82-1.833 1.833-1.833z" transform="translate(-1258 -1241) translate(100 773) translate(947 79) translate(118) translate(0 380) translate(90)"/>
                            </g>
                        </g>
                    </g>
                </g>
            </g>
        </g>
    </g>
</svg>
