<svg xmlns="http://www.w3.org/2000/svg" width="12" height="14" viewBox="0 0 12 14">
    <g fill="none" fill-rule="evenodd">
        <g fill="#FFF" fill-rule="nonzero">
            <g>
                <g>
                    <g>
                        <g>
                            <path d="M11.592 4C7.831 4 5.934 6.697 5.934 8.946c0 1.361.516 2.573 1.621 3.024.182.075.344.003.397-.198.036-.139.123-.49.161-.636.053-.198.033-.267-.114-.44-.318-.377-.522-.863-.522-1.553 0-2 1.497-3.792 3.897-3.792 2.127 0 3.295 1.3 3.295 3.034 0 2.283-1.01 4.21-2.51 4.21-.829 0-1.448-.685-1.25-1.526.238-1.003.699-2.085.699-2.81 0-.647-.348-1.187-1.068-1.187-.846 0-1.527.876-1.527 2.049 0 .747.253 1.252.253 1.252l-1.018 4.314c-.303 1.28-.046 2.85-.024 3.009.013.094.134.116.188.046.078-.103 1.087-1.347 1.43-2.592.097-.352.556-2.175.556-2.175.275.524 1.08.986 1.934.986 2.545 0 4.272-2.32 4.272-5.425 0-2.35-1.989-4.536-5.012-4.536z" transform="translate(-1276 -902) translate(100 773) translate(947 79) translate(153 25) translate(71 21)"/>
                        </g>
                    </g>
                </g>
            </g>
        </g>
    </g>
</svg>
