<svg xmlns="http://www.w3.org/2000/svg" width="14" height="12" viewBox="0 0 14 12">
    <g fill="none" fill-rule="evenodd">
        <g fill="#1afffc" fill-rule="nonzero">
            <g>
                <g>
                    <g>
                        <g>
                            <g>
                                <path d="M17.8 6.771c-.486.216-1.009.362-1.557.427.56-.335.99-.866 1.192-1.5-.524.311-1.104.537-1.722.658-.494-.527-1.2-.856-1.979-.856-1.497 0-2.711 1.214-2.711 2.712 0 .212.024.419.07.618-2.254-.114-4.252-1.193-5.59-2.834-.233.4-.366.866-.366 1.364 0 .94.478 1.77 1.206 2.257-.444-.015-.863-.137-1.228-.34v.035c0 1.313.934 2.409 2.175 2.658-.228.062-.467.095-.715.095-.175 0-.345-.017-.51-.048.345 1.077 1.346 1.861 2.533 1.883-.928.727-2.097 1.16-3.368 1.16-.218 0-.434-.012-.647-.037 1.2.77 2.626 1.218 4.157 1.218 4.988 0 7.715-4.132 7.715-7.715 0-.118-.002-.235-.007-.351.53-.382.989-.86 1.352-1.404z" transform="translate(-1199 -857) translate(100 773) translate(947 79) translate(118) translate(30)"/>
                            </g>
                        </g>
                    </g>
                </g>
            </g>
        </g>
    </g>
</svg>
