<svg xmlns="http://www.w3.org/2000/svg" width="18" height="18" viewBox="0 0 18 18">
    <g fill="none" fill-rule="evenodd">
        <g>
            <g>
                <g transform="translate(-247 -206) translate(18 206) translate(229)">
                    <path fill="#BF71FF" fill-rule="nonzero" d="M8.587 5.433v7.244c0 .25.24.453.538.453.297 0 .538-.203.538-.453V5.433c0-.25-.24-.453-.538-.453-.297 0-.538.203-.538.453zM6.278 8.984c-.21-.21-.55-.21-.76 0-.21.21-.21.55 0 .76l3.227 3.228c.21.21.55.21.76 0l3.227-3.227c.21-.21.21-.55 0-.76-.21-.21-.55-.21-.76 0L9.125 11.83 6.278 8.984z" transform="matrix(1 0 0 -1 0 18.11)"/>
                    <circle cx="9" cy="9" r="8.325" stroke="#BF71FF" stroke-width="1.35"/>
                </g>
            </g>
        </g>
    </g>
</svg>
