<svg xmlns="http://www.w3.org/2000/svg" xmlns:xlink="http://www.w3.org/1999/xlink" width="21" height="20" viewBox="0 0 21 20">
    <defs>
        <path id="nbadf8ns7a" d="M20 10c5.523 0 10 4.477 10 10s-4.477 10-10 10-10-4.477-10-10 4.477-10 10-10zm-4.497 10.91h-3.635c.376 3.397 2.831 6.166 6.064 7.008-1.382-2.08-2.222-4.485-2.43-7.008zm12.629 0H24.5c-.204 2.511-1.045 4.922-2.432 7.008 3.233-.842 5.688-3.611 6.064-7.008zm-5.455 0h-5.352c.229 2.466 1.157 4.816 2.675 6.771 1.523-1.962 2.453-4.32 2.677-6.771zm-4.745-8.828l-.107.028c-3.18.875-5.585 3.621-5.957 6.98H15.5c.204-2.511 1.045-4.922 2.432-7.008zM20 12.32c-1.523 1.962-2.453 4.32-2.677 6.771h5.352c-.229-2.466-1.157-4.816-2.675-6.771zm2.068-.237l.014.022c1.374 2.074 2.208 4.471 2.415 6.986h3.635c-.376-3.397-2.831-6.166-6.064-7.008z"/>
    </defs>
    <g fill="none" fill-rule="evenodd">
        <g>
            <g>
                <g>
                    <g transform="translate(-372 -595) translate(285 295) translate(25 290) translate(52.5)">
                        <use fill="#FFF" fill-rule="nonzero" xlink:href="#nbadf8ns7a"/>
                    </g>
                </g>
            </g>
        </g>
    </g>
</svg>
