<svg xmlns="http://www.w3.org/2000/svg" xmlns:xlink="http://www.w3.org/1999/xlink" width="12" height="20" viewBox="0 0 12 20">
    <defs>
        <path id="16gm03neoa" d="M16.727 15.455c0-3.013 2.442-5.455 5.455-5.455h2.727c.502 0 .91.407.91.91v3.635c0 .503-.408.91-.91.91h-2.727v1.818h2.727c.592 0 1.025.556.882 1.13l-.91 3.636c-.1.404-.464.688-.881.688h-1.818v6.364c0 .502-.407.909-.91.909h-3.636c-.502 0-.909-.407-.909-.91v-6.363H14.91c-.502 0-.909-.407-.909-.909v-3.636c0-.502.407-.91.91-.91h1.817v-1.817zM24 11.818h-1.818c-2.008 0-3.637 1.628-3.637 3.637v2.727c0 .502-.407.909-.909.909h-1.818v1.818h1.818c.502 0 .91.407.91.91v6.363h1.818v-6.364c0-.502.407-.909.909-.909h2.017l.455-1.818h-2.472c-.502 0-.91-.407-.91-.91v-2.726c0-1.005.815-1.819 1.819-1.819H24v-1.818z"/>
    </defs>
    <g fill="none" fill-rule="evenodd">
        <g>
            <g>
                <g>
                    <g transform="translate(-429 -595) translate(285 295) translate(25 290) translate(105)">
                        <use fill="#FFF" fill-rule="nonzero" xlink:href="#16gm03neoa"/>
                    </g>
                </g>
            </g>
        </g>
    </g>
</svg>
