<svg xmlns="http://www.w3.org/2000/svg" width="24" height="18" viewBox="0 0 24 18">
    <g fill="none" fill-rule="evenodd">
        <g fill="#FFF" fill-rule="nonzero">
            <path d="M28.09 36.377c.503-.503 1.317-.503 1.82 0 .501.502.501 1.316 0 1.818l-5.521 5.519h17.468c.666 0 1.213.506 1.28 1.155l.006.131c0 .71-.576 1.286-1.286 1.286l-17.469-.001 5.521 5.52c.469.469.5 1.21.094 1.714l-.094.104c-.502.503-1.316.503-1.818 0l-7.714-7.714-.083-.091-.004-.004c-.015-.019-.03-.037-.044-.057-.01-.015-.022-.03-.032-.047-.016-.023-.03-.046-.043-.069l-.022-.04c-.012-.022-.023-.044-.033-.067-.01-.02-.018-.041-.027-.062l-.015-.042c-.01-.025-.018-.051-.025-.077l-.016-.062-.014-.068-.007-.05C20.004 45.118 20 45.06 20 45l.004.098-.004-.075V45v-.022c0-.025.002-.051.004-.077.002-.025.004-.05.008-.075l.007-.049.014-.068.016-.062c.007-.026.016-.052.025-.077l.015-.042.027-.062c.01-.023.021-.045.033-.067l.022-.04.042-.069.034-.048c.038-.052.082-.103.13-.151l-.087.095c.028-.033.056-.065.087-.095z" transform="translate(-20 -36)"/>
        </g>
    </g>
</svg>
