<svg xmlns="http://www.w3.org/2000/svg" width="12" height="12" viewBox="0 0 12 12">
    <g fill="none" fill-rule="evenodd">
        <g fill="#FFF" fill-rule="nonzero">
            <g>
                <g>
                    <g>
                        <g>
                            <g>
                                <path d="M10.01 8.985l.202.008c.873.063 1.677.501 2.201 1.203.167.222.121.537-.101.704-.223.166-.538.12-.704-.102-.35-.467-.886-.76-1.468-.802-.582-.041-1.154.172-1.567.585L7.07 12.084c-.762.79-.752 2.044.025 2.82.776.777 2.03.788 2.814.031l.86-.86c.197-.196.515-.196.712 0 .196.196.196.515 0 .711l-.867.867c-1.184 1.144-3.067 1.127-4.23-.037-1.165-1.164-1.181-3.047-.031-4.237l1.509-1.51c.619-.619 1.476-.939 2.35-.876zm1.384-2.638c1.185-1.144 3.067-1.127 4.231.037 1.164 1.164 1.18 3.047.03 4.237l-1.508 1.51c-.62.619-1.477.939-2.35.876-.874-.063-1.677-.501-2.202-1.203-.166-.222-.12-.537.102-.704.222-.166.538-.12.704.102.35.467.885.76 1.468.802.582.041 1.154-.172 1.566-.585l1.503-1.503c.763-.79.752-2.044-.024-2.82-.776-.777-2.031-.788-2.816-.03l-.865.86c-.197.196-.515.195-.711-.002-.196-.197-.195-.516.002-.711z" transform="translate(-1170 -857) translate(100 773) translate(947 79) translate(118)"/>
                            </g>
                        </g>
                    </g>
                </g>
            </g>
        </g>
    </g>
</svg>
