<svg xmlns="http://www.w3.org/2000/svg" width="40" height="40" viewBox="0 0 40 40">
    <g fill="none" fill-rule="evenodd">
        <g>
            <g>
                <g>
                    <g>
                        <g>
                            <g transform="translate(-286 -205) translate(106 95) translate(180 110)">
                                <circle cx="20" cy="20" r="18.5" stroke="#BDBECB" stroke-width="3"/>
                                <path fill="#BDBECB" fill-rule="nonzero" d="M14.293 13.293c.39-.39 1.024-.39 1.414 0 .39.39.39 1.024 0 1.414L11.414 19H25c.513 0 .936.386.993.883L26 20c0 .552-.448 1-1 1H11.414l4.293 4.293c.36.36.388.928.083 1.32l-.083.094c-.39.39-1.024.39-1.414 0l-6-6-.073-.082-.007-.008-.017-.022c-.018-.024-.034-.049-.05-.074l-.021-.037c-.011-.02-.022-.04-.031-.06l-.023-.053-.021-.06-.014-.045-.016-.065-.009-.053C8.004 20.1 8 20.051 8 20l.004.09L8 20.02V20v-.02c0-.022.002-.046.004-.07l.007-.059.01-.052c.004-.022.009-.043.015-.065l.014-.046.021-.06.023-.051.03-.061.022-.037c.016-.025.032-.05.05-.074.03-.04.061-.077.097-.112l-.08.09c.025-.031.051-.062.08-.09z"/>
                                <path fill="#BDBECB" fill-rule="nonzero" d="M20.293 13.293c.39-.39 1.024-.39 1.414 0 .39.39.39 1.024 0 1.414L17.414 19H31c.513 0 .936.386.993.883L32 20c0 .552-.448 1-1 1H17.414l4.293 4.293c.36.36.388.928.083 1.32l-.083.094c-.39.39-1.024.39-1.414 0l-6-6-.073-.082-.007-.008-.017-.022c-.018-.024-.034-.049-.05-.074l-.021-.037c-.011-.02-.022-.04-.031-.06l-.023-.053-.021-.06-.014-.045-.016-.065-.009-.053C14.004 20.1 14 20.051 14 20l.004.09-.004-.07V20v-.02c0-.022.002-.046.004-.07l.007-.059.01-.052c.004-.022.009-.043.015-.065l.014-.046.021-.06.023-.051.03-.061.022-.037c.016-.025.032-.05.05-.074.03-.04.061-.077.097-.112l-.08.09c.025-.031.051-.062.08-.09z" transform="matrix(-1 0 0 1 46 0)"/>
                            </g>
                        </g>
                    </g>
                </g>
            </g>
        </g>
    </g>
</svg>
