<svg xmlns="http://www.w3.org/2000/svg" width="14" height="14" viewBox="0 0 14 14">
    <g fill="none" fill-rule="evenodd">
        <g fill="#1AFFFC" fill-rule="nonzero">
            <g>
                <g>
                    <g>
                        <g>
                            <path d="M149.293 4.293c.39-.39 1.024-.39 1.414 0L156 9.585l5.293-5.292c.36-.36.928-.388 1.32-.083l.094.083c.39.39.39 1.024 0 1.414L157.415 11l5.292 5.293c.36.36.388.928.083 1.32l-.083.094c-.39.39-1.024.39-1.414 0L156 12.415l-5.293 5.292c-.36.36-.928.388-1.32.083l-.094-.083c-.39-.39-.39-1.024 0-1.414L154.585 11l-5.292-5.293c-.36-.36-.388-.928-.083-1.32z" transform="translate(-1314 -928) translate(100 773) translate(947 79) translate(118) translate(0 72)"/>
                        </g>
                    </g>
                </g>
            </g>
        </g>
    </g>
</svg>
